0
SECTION
2
HEADER
9
$INSUNITS
70
4
9
$ACADVER
1
AC1014
9
$HANDSEED
5
FFFF
0
ENDSEC
0
SECTION
2
TABLES
0
TABLE
2
VPORT
5
8
100
AcDbSymbolTable
0
ENDTAB
0
TABLE
2
LTYPE
5
5
100
AcDbSymbolTable
0
LTYPE
5
14
100
AcDbSymbolTableRecord
100
AcDbLinetypeTableRecord
2
BYBLOCK
70
0
0
LTYPE
5
15
100
AcDbSymbolTableRecord
100
AcDbLinetypeTableRecord
2
BYLAYER
70
0
0
ENDTAB
0
TABLE
2
LAYER
5
2
100
AcDbSymbolTable
70
2
0
LAYER
5
50
100
AcDbSymbolTableRecord
100
AcDbLayerTableRecord
2
0
70
0
6
CONTINUOUS
0
ENDTAB
0
TABLE
2
STYLE
5
3
100
AcDbSymbolTable
70
1
0
STYLE
5
11
100
AcDbSymbolTableRecord
100
AcDbTextStyleTableRecord
2
STANDARD
70
0
0
ENDTAB
0
TABLE
2
VIEW
5
6
100
AcDbSymbolTable
70
0
0
ENDTAB
0
TABLE
2
UCS
5
7
100
AcDbSymbolTable
70
0
0
ENDTAB
0
TABLE
2
APPID
5
9
100
AcDbSymbolTable
70
2
0
APPID
5
12
100
AcDbSymbolTableRecord
100
AcDbRegAppTableRecord
2
ACAD
70
0
0
ENDTAB
0
TABLE
2
DIMSTYLE
5
A
100
AcDbSymbolTable
70
1
0
ENDTAB
0
TABLE
2
BLOCK_RECORD
5
1
100
AcDbSymbolTable
70
1
0
BLOCK_RECORD
5
1F
100
AcDbSymbolTableRecord
100
AcDbBlockTableRecord
2
*MODEL_SPACE
0
BLOCK_RECORD
5
1B
100
AcDbSymbolTableRecord
100
AcDbBlockTableRecord
2
*PAPER_SPACE
0
ENDTAB
0
ENDSEC
0
SECTION
2
BLOCKS
0
BLOCK
5
20
100
AcDbEntity
100
AcDbBlockBegin
2
*MODEL_SPACE
0
ENDBLK
5
21
100
AcDbEntity
100
AcDbBlockEnd
0
BLOCK
5
1C
100
AcDbEntity
100
AcDbBlockBegin
2
*PAPER_SPACE
0
ENDBLK
5
1D
100
AcDbEntity
100
AcDbBlockEnd
0
ENDSEC
0
SECTION
2
ENTITIES
0
LWPOLYLINE
5
100
100
AcDbEntity
8
0
100
AcDbPolyline
90
6
70
1
43
0.0
10
-0.80000000000000071
20
-36.406836801011188
10
-0.80000000000000071
20
36.406836801011309
10
37.766168784104238
20
36.406836801011302
10
50.36540726659311
20
14.584315612663561
10
50.36540726659311
20
-14.584315612663525
10
37.766168784104281
20
-36.406836801011188
0
SPLINE
5
101
100
AcDbEntity
8
0
100
AcDbSpline
70
0
71
3
72
16
73
12
74
0
42
0.000000001
43
0.0000000001
44
0.0000000001
40
0
40
0
40
0
40
0
40
0.12077812750912302
40
0.12077812750912302
40
0.23637842365179007
40
0.23637842365179007
40
0.34679985359373855
40
0.34679985359373855
40
0.43031236308808507
40
0.43031236308808507
40
0.51066272838632731
40
0.51066272838632731
40
0.51066272838632731
40
0.51066272838632731
10
19.594229652757299
20
20.745734440653372
30
0
10
19.918138602540068
20
20.506642980069628
30
0
10
20.193269337720313
20
20.207818219199506
30
0
10
20.601568241542605
20
19.534796094998001
30
0
10
20.736462515016136
20
19.170561232731242
30
0
10
20.853038933009174
20
18.427691592852355
30
0
10
20.840151390786211
20
18.057272019364628
30
0
10
20.690686371570607
20
17.430297701272536
30
0
10
20.585820999375265
20
17.171606521155645
30
0
10
20.304987389619022
20
16.705338421061594
30
0
10
20.133442842912057
20
16.498876726563051
30
0
10
19.932930594599711
20
16.322943890574145
30
0
0
ARC
5
102
100
AcDbEntity
8
0
100
AcDbCircle
10
18.000000252260023
20
18
30
0
40
2.55905
210
0
220
0
230
1
100
AcDbArc
50
220.94568109093009
51
319.05431890906812
0
SPLINE
5
103
100
AcDbEntity
8
0
100
AcDbSpline
70
0
71
3
72
16
73
12
74
0
42
0.000000001
43
0.0000000001
44
0.0000000001
40
0
40
0
40
0
40
0
40
0.10156903938460095
40
0.10156903938460095
40
0.20830131945665817
40
0.20830131945665817
40
0.32019561544336261
40
0.32019561544336261
40
0.41268004571914652
40
0.41268004571914652
40
0.50835302735430721
40
0.50835302735430721
40
0.50835302735430721
40
0.50835302735430721
10
16.067069909920281
20
16.322943890574205
30
0
10
15.812579992096685
20
16.546237646193298
30
0
10
15.605278984044553
20
16.818185357478967
30
0
10
15.29573873314151
20
17.440566586295262
30
0
10
15.202413110828616
20
17.787963935679361
30
0
10
15.149581147461655
20
18.516381881411736
30
0
10
15.197201914793022
20
18.890861238644707
30
0
10
15.410078208879714
20
19.540283439493251
30
0
10
15.552128851440887
20
19.817155534070736
30
0
10
15.920937969293703
20
20.327286145702569
30
0
10
16.148130125359124
20
20.555558474157202
30
0
10
16.405770851762821
20
20.745734440653418
30
0
0
ARC
5
104
100
AcDbEntity
8
0
100
AcDbCircle
10
18.000000252260023
20
18
30
0
40
3.1750000000000025
210
0
220
-0
230
1
100
AcDbArc
50
59.859675909581959
51
120.14032409041646
0
SPLINE
5
105
100
AcDbEntity
8
0
100
AcDbSpline
70
0
71
3
72
16
73
12
74
0
42
0.000000001
43
0.0000000001
44
0.0000000001
40
0
40
0
40
0
40
0
40
0.1207781275091228
40
0.1207781275091228
40
0.23637842365179401
40
0.23637842365179401
40
0.34679985359374843
40
0.34679985359374843
40
0.43031236308809212
40
0.43031236308809212
40
0.51066272838632765
40
0.51066272838632765
40
0.51066272838632765
40
0.51066272838632765
10
10.594229384536435
20
20.745734440653372
30
0
10
10.918138334319202
20
20.506642980069628
30
0
10
11.193269069499445
20
20.20781821919951
30
0
10
11.601567973321742
20
19.534796094997994
30
0
10
11.73646224679527
20
19.170561232731238
30
0
10
11.853038664788309
20
18.427691592852359
30
0
10
11.840151122565345
20
18.057272019364635
30
0
10
11.690686103349748
20
17.430297701272568
30
0
10
11.58582073115441
20
17.171606521155656
30
0
10
11.304987121398156
20
16.70533842106159
30
0
10
11.133442574691195
20
16.498876726563047
30
0
10
10.932930326378846
20
16.322943890574141
30
0
0
ARC
5
106
100
AcDbEntity
8
0
100
AcDbCircle
10
8.9999999840391567
20
18
30
0
40
2.55905
210
0
220
0
230
1
100
AcDbArc
50
220.94568109093012
51
319.05431890906806
0
SPLINE
5
107
100
AcDbEntity
8
0
100
AcDbSpline
70
0
71
3
72
16
73
12
74
0
42
0.000000001
43
0.0000000001
44
0.0000000001
40
0
40
0
40
0
40
0
40
0.10156903938460071
40
0.10156903938460071
40
0.20830131945665803
40
0.20830131945665803
40
0.3201956154433625
40
0.3201956154433625
40
0.41268004571914513
40
0.41268004571914513
40
0.5083530273543061
40
0.5083530273543061
40
0.5083530273543061
40
0.5083530273543061
10
7.0670696416994172
20
16.322943890574205
30
0
10
6.8125797238758201
20
16.546237646193298
30
0
10
6.6052787158236903
20
16.818185357478967
30
0
10
6.2957384649206469
20
17.440566586295258
30
0
10
6.2024128426077532
20
17.787963935679361
30
0
10
6.1495808792407933
20
18.516381881411736
30
0
10
6.1972016465721573
20
18.890861238644707
30
0
10
6.4100779406588524
20
19.540283439493255
30
0
10
6.5521285832200284
20
19.817155534070739
30
0
10
6.9209377010728463
20
20.32728614570258
30
0
10
7.1481298571382803
20
20.555558474157213
30
0
10
7.4057705835419574
20
20.745734440653415
30
0
0
ARC
5
108
100
AcDbEntity
8
0
100
AcDbCircle
10
8.9999999840391567
20
18
30
0
40
3.1750000000000025
210
0
220
-0
230
1
100
AcDbArc
50
59.859675909581945
51
120.14032409041646
0
SPLINE
5
109
100
AcDbEntity
8
0
100
AcDbSpline
70
0
71
3
72
16
73
12
74
0
42
0.000000001
43
0.0000000001
44
0.0000000001
40
0
40
0
40
0
40
0
40
0.1207781275091195
40
0.1207781275091195
40
0.23637842365178408
40
0.23637842365178408
40
0.34679985359373078
40
0.34679985359373078
40
0.43031236308807447
40
0.43031236308807447
40
0.51066272838631266
40
0.51066272838631266
40
0.51066272838631266
40
0.51066272838631266
10
10.594229416458155
20
2.7457344406533712
30
0
10
10.918138366240914
20
2.5066429800696337
30
0
10
11.193269101421169
20
2.2078182191995115
30
0
10
11.601568005243465
20
1.5347960949979911
30
0
10
11.736462278716992
20
1.1705612327312329
30
0
10
11.85303869671003
20
0.42769159285235547
30
0
10
11.840151154487067
20
0.057272019364628113
30
0
10
11.690686135271465
20
-0.56970229872745892
30
0
10
11.585820763076121
20
-0.82839347884435421
30
0
10
11.304987153319876
20
-1.2946615789384053
30
0
10
11.133442606612913
20
-1.5011232734369511
30
0
10
10.932930358300565
20
-1.6770561094258567
30
0
0
ARC
5
110
100
AcDbEntity
8
0
100
AcDbCircle
10
9.0000000159608788
20
-3.0531133177191805e-15
30
0
40
2.5590499999999978
210
0
220
0
230
1
100
AcDbArc
50
220.94568109092998
51
319.05431890906812
0
SPLINE
5
111
100
AcDbEntity
8
0
100
AcDbSpline
70
0
71
3
72
16
73
12
74
0
42
0.000000001
43
0.0000000001
44
0.0000000001
40
0
40
0
40
0
40
0
40
0.1015690393846021
40
0.1015690393846021
40
0.20830131945666369
40
0.20830131945666369
40
0.3201956154433715
40
0.3201956154433715
40
0.41268004571915728
40
0.41268004571915728
40
0.50835302735432131
40
0.50835302735432131
40
0.50835302735432131
40
0.50835302735432131
10
7.0670696736211376
20
-1.6770561094257928
30
0
10
6.8125797557975378
20
-1.4537623538066984
30
0
10
6.6052787477454089
20
-1.1818146425210243
30
0
10
6.2957384968423691
20
-0.55943341370473976
30
0
10
6.2024128745294753
20
-0.2120360643206386
30
0
10
6.1495809111625155
20
0.51638188141173336
30
0
10
6.1972016784938777
20
0.89086123864470257
30
0
10
6.4100779725805719
20
1.540283439493251
30
0
10
6.5521286151417479
20
1.8171555340707382
30
0
10
6.9209377329945641
20
2.3272861457025735
30
0
10
7.1481298890599918
20
2.5555584741572046
30
0
10
7.4057706154636787
20
2.7457344406534157
30
0
0
ARC
5
112
100
AcDbEntity
8
0
100
AcDbCircle
10
9.0000000159608788
20
-3.0531133177191805e-15
30
0
40
3.1750000000000016
210
0
220
-0
230
1
100
AcDbArc
50
59.859675909581988
51
120.14032409041641
0
SPLINE
5
113
100
AcDbEntity
8
0
100
AcDbSpline
70
0
71
3
72
16
73
12
74
0
42
0.000000001
43
0.0000000001
44
0.0000000001
40
0
40
0
40
0
40
0
40
0.12077812750911822
40
0.12077812750911822
40
0.23637842365178147
40
0.23637842365178147
40
0.3467998535937345
40
0.3467998535937345
40
0.43031236308808252
40
0.43031236308808252
40
0.51066272838632198
40
0.51066272838632198
40
0.51066272838632198
40
0.51066272838632198
10
19.594229652757544
20
2.7457344406532296
30
0
10
19.918138602540278
20
2.5066429800694663
30
0
10
20.193269337720508
20
2.2078182191993188
30
0
10
20.601568241542747
20
1.5347960949977586
30
0
10
20.736462515016242
20
1.1705612327309889
30
0
10
20.853038933009216
20
0.42769159285207686
30
0
10
20.840151390786211
20
0.057272019364363429
30
0
10
20.690686371570553
20
-0.56970229872768885
30
0
10
20.585820999375191
20
-0.82839347884458103
30
0
10
20.304987389618905
20
-1.2946615789386069
30
0
10
20.133442842911926
20
-1.5011232734371405
30
0
10
19.932930594599558
20
-1.6770561094260297
30
0
0
ARC
5
114
100
AcDbEntity
8
0
100
AcDbCircle
10
18.000000252260023
20
-3.8857805861880479e-15
30
0
40
2.5590499999999987
210
0
220
0
230
1
100
AcDbArc
50
220.94568109092489
51
319.054318909063
0
SPLINE
5
115
100
AcDbEntity
8
0
100
AcDbSpline
70
0
71
3
72
16
73
12
74
0
42
0.000000001
43
0.0000000001
44
0.0000000001
40
0
40
0
40
0
40
0
40
0.10156903938460159
40
0.10156903938460159
40
0.20830131945666114
40
0.20830131945666114
40
0.320195615443367
40
0.320195615443367
40
0.41268004571915051
40
0.41268004571915051
40
0.50835302735431243
40
0.50835302735431243
40
0.50835302735431243
40
0.50835302735431243
10
16.067069909920132
20
-1.6770561094256211
30
0
10
15.812579992096552
20
-1.4537623538065052
30
0
10
15.605278984044446
20
-1.1818146425208154
30
0
10
15.295738733141459
20
-0.55943341370449917
30
0
10
15.202413110828596
20
-0.21203606432038957
30
0
10
15.149581147461701
20
0.51638188141198849
30
0
10
15.1972019147931
20
0.89086123864495437
30
0
10
15.410078208879849
20
1.5402834394934797
30
0
10
15.552128851441047
20
1.8171555340709522
30
0
10
15.920937969293917
20
2.3272861457027654
30
0
10
16.148130125359373
20
2.5555584741573778
30
0
10
16.405770851763066
20
2.7457344406535582
30
0
0
ARC
5
116
100
AcDbEntity
8
0
100
AcDbCircle
10
18.000000252260023
20
-3.8857805861880479e-15
30
0
40
3.1750000000000012
210
0
220
-0
230
1
100
AcDbArc
50
59.859675909576886
51
120.14032409041133
0
SPLINE
5
117
100
AcDbEntity
8
0
100
AcDbSpline
70
0
71
3
72
16
73
12
74
0
42
0.000000001
43
0.0000000001
44
0.0000000001
40
0
40
0
40
0
40
0
40
0.12077812750911886
40
0.12077812750911886
40
0.23637842365178258
40
0.23637842365178258
40
0.34679985359373089
40
0.34679985359373089
40
0.43031236308807441
40
0.43031236308807441
40
0.51066272838631266
40
0.51066272838631266
40
0.51066272838631266
40
0.51066272838631266
10
10.594229652757544
20
-15.254265559346774
30
0
10
10.918138602540282
20
-15.493357019930539
30
0
10
11.193269337720507
20
-15.792181780800682
30
0
10
11.601568241542743
20
-16.465203905002237
30
0
10
11.736462515016239
20
-16.829438767269007
30
0
10
11.853038933009213
20
-17.572308407147904
30
0
10
11.840151390786213
20
-17.942727980635627
30
0
10
11.690686371570557
20
-18.569702298727687
30
0
10
11.585820999375194
20
-18.828393478844582
30
0
10
11.304987389618899
20
-19.294661578938623
30
0
10
11.133442842911919
20
-19.501123273437145
30
0
10
10.932930594599558
20
-19.677056109426033
30
0
0
ARC
5
118
100
AcDbEntity
8
0
100
AcDbCircle
10
9.0000002522600209
20
-18
30
0
40
2.5590500000000018
210
0
220
0
230
1
100
AcDbArc
50
220.94568109092495
51
319.05431890906289
0
SPLINE
5
119
100
AcDbEntity
8
0
100
AcDbSpline
70
0
71
3
72
16
73
12
74
0
42
0.000000001
43
0.0000000001
44
0.0000000001
40
0
40
0
40
0
40
0
40
0.10156903938460236
40
0.10156903938460236
40
0.2083013194566628
40
0.2083013194566628
40
0.32019561544336972
40
0.32019561544336972
40
0.41268004571915606
40
0.41268004571915606
40
0.50835302735432397
40
0.50835302735432397
40
0.50835302735432397
40
0.50835302735432397
10
7.0670699099201286
20
-19.677056109425621
30
0
10
6.8125799920965466
20
-19.453762353806503
30
0
10
6.6052789840444417
20
-19.181814642520809
30
0
10
6.2957387331414587
20
-18.559433413704493
30
0
10
6.202413110828596
20
-18.212036064320383
30
0
10
6.1495811474617037
20
-17.483618118588005
30
0
10
6.1972019147930997
20
-17.109138761355037
30
0
10
6.4100782088798569
20
-16.459716560506504
30
0
10
6.5521288514410649
20
-16.182844465929026
30
0
10
6.9209379692939184
20
-15.672713854297237
30
0
10
7.1481301253593656
20
-15.444441525842628
30
0
10
7.4057708517630729
20
-15.254265559346438
30
0
0
ARC
5
120
100
AcDbEntity
8
0
100
AcDbCircle
10
9.0000002522600209
20
-18
30
0
40
3.1749999999999954
210
0
220
-0
230
1
100
AcDbArc
50
59.859675909576794
51
120.14032409041118
0
SPLINE
5
121
100
AcDbEntity
8
0
100
AcDbSpline
70
0
71
3
72
16
73
12
74
0
42
0.000000001
43
0.0000000001
44
0.0000000001
40
0
40
0
40
0
40
0
40
0.12077812750912277
40
0.12077812750912277
40
0.23637842365179174
40
0.23637842365179174
40
0.34679985359374277
40
0.34679985359374277
40
0.43031236308809151
40
0.43031236308809151
40
0.5106627283863332
40
0.5106627283863332
40
0.5106627283863332
40
0.5106627283863332
10
28.59422941498401
20
2.7457344406532354
30
0
10
28.918138364766754
20
2.5066429800694641
30
0
10
29.193269099946978
20
2.2078182191993196
30
0
10
29.601568003769213
20
1.534796094997769
30
0
10
29.736462277242708
20
1.1705612327309987
30
0
10
29.853038695235682
20
0.42769159285210884
30
0
10
29.840151153012688
20
0.057272019364382892
30
0
10
29.69068613379703
20
-0.56970229872769718
30
0
10
29.585820761601664
20
-0.82839347884458081
30
0
10
29.304987151845381
20
-1.2946615789386007
30
0
10
29.133442605138406
20
-1.5011232734371358
30
0
10
28.932930356826038
20
-1.6770561094260263
30
0
0
ARC
5
122
100
AcDbEntity
8
0
100
AcDbCircle
10
27.000000014486496
20
-6.3837823915946501e-15
30
0
40
2.5590499999999987
210
0
220
0
230
1
100
AcDbArc
50
220.94568109092484
51
319.05431890906317
0
SPLINE
5
123
100
AcDbEntity
8
0
100
AcDbSpline
70
0
71
3
72
16
73
12
74
0
42
0.000000001
43
0.0000000001
44
0.0000000001
40
0
40
0
40
0
40
0
40
0.10156903938459948
40
0.10156903938459948
40
0.20830131945665337
40
0.20830131945665337
40
0.32019561544335878
40
0.32019561544335878
40
0.41268004571914207
40
0.41268004571914207
40
0.50835302735429677
40
0.50835302735429677
40
0.50835302735429677
40
0.50835302735429677
10
25.067069672146602
20
-1.6770561094256251
30
0
10
24.812579754323028
20
-1.4537623538065139
30
0
10
24.605278746270919
20
-1.181814642520834
30
0
10
24.295738495367925
20
-0.55943341370449684
30
0
10
24.202412873055067
20
-0.21203606432037969
30
0
10
24.149580909688172
20
0.51638188141199159
30
0
10
24.197201677019574
20
0.89086123864496236
30
0
10
24.410077971106322
20
1.5402834394934708
30
0
10
24.552128613667506
20
1.8171555340709389
30
0
10
24.920937731520382
20
2.3272861457027592
30
0
10
25.148129887585831
20
2.5555584741573707
30
0
10
25.405770613989532
20
2.7457344406535582
30
0
0
ARC
5
124
100
AcDbEntity
8
0
100
AcDbCircle
10
27.000000014486496
20
-6.3837823915946501e-15
30
0
40
3.1750000000000056
210
0
220
-0
230
1
100
AcDbArc
50
59.859675909577078
51
120.14032409041131
0
SPLINE
5
125
100
AcDbEntity
8
0
100
AcDbSpline
70
0
71
3
72
16
73
12
74
0
42
0.000000001
43
0.0000000001
44
0.0000000001
40
0
40
0
40
0
40
0
40
0.12077812750912299
40
0.12077812750912299
40
0.23637842365178896
40
0.23637842365178896
40
0.346799853593737
40
0.346799853593737
40
0.43031236308808352
40
0.43031236308808352
40
0.51066272838632532
40
0.51066272838632532
40
0.51066272838632532
40
0.51066272838632532
10
19.594229652757548
20
-15.254265559346772
30
0
10
19.918138602540296
20
-15.493357019930546
30
0
10
20.193269337720508
20
-15.792181780800689
30
0
10
20.601568241542733
20
-16.465203905002227
30
0
10
20.736462515016242
20
-16.829438767269
30
0
10
20.853038933009213
20
-17.572308407147904
30
0
10
20.840151390786215
20
-17.942727980635627
30
0
10
20.690686371570557
20
-18.569702298727698
30
0
10
20.585820999375191
20
-18.828393478844589
30
0
10
20.304987389618901
20
-19.294661578938619
30
0
10
20.133442842911919
20
-19.501123273437145
30
0
10
19.932930594599554
20
-19.677056109426033
30
0
0
ARC
5
126
100
AcDbEntity
8
0
100
AcDbCircle
10
18.000000252260019
20
-17.999999999999996
30
0
40
2.5590500000000049
210
0
220
0
230
1
100
AcDbArc
50
220.94568109092495
51
319.05431890906277
0
SPLINE
5
127
100
AcDbEntity
8
0
100
AcDbSpline
70
0
71
3
72
16
73
12
74
0
42
0.000000001
43
0.0000000001
44
0.0000000001
40
0
40
0
40
0
40
0
40
0.10156903938460168
40
0.10156903938460168
40
0.20830131945666153
40
0.20830131945666153
40
0.32019561544336739
40
0.32019561544336739
40
0.41268004571915345
40
0.41268004571915345
40
0.50835302735431787
40
0.50835302735431787
40
0.50835302735431787
40
0.50835302735431787
10
16.067069909920129
20
-19.677056109425621
30
0
10
15.812579992096548
20
-19.453762353806503
30
0
10
15.605278984044444
20
-19.181814642520813
30
0
10
15.295738733141462
20
-18.5594334137045
30
0
10
15.202413110828596
20
-18.21203606432039
30
0
10
15.149581147461703
20
-17.483618118588005
30
0
10
15.197201914793103
20
-17.109138761355037
30
0
10
15.410078208879854
20
-16.459716560506518
30
0
10
15.552128851441054
20
-16.18284446592904
30
0
10
15.920937969293918
20
-15.672713854297237
30
0
10
16.148130125359369
20
-15.444441525842624
30
0
10
16.405770851763069
20
-15.25426555934644
30
0
0
ARC
5
128
100
AcDbEntity
8
0
100
AcDbCircle
10
18.000000252260019
20
-17.999999999999996
30
0
40
3.1749999999999967
210
0
220
-0
230
1
100
AcDbArc
50
59.859675909576694
51
120.14032409041126
0
SPLINE
5
129
100
AcDbEntity
8
0
100
AcDbSpline
70
0
71
3
72
18
73
14
74
0
42
0.000000001
43
0.0000000001
44
0.0000000001
40
0
40
0
40
0
40
0
40
0.27418175048135346
40
0.27418175048135346
40
0.54426132333650612
40
0.54426132333650612
40
0.8102374661171905
40
0.8102374661171905
40
1.0721089098544621
40
1.0721089098544621
40
1.2281788003513938
40
1.2281788003513938
40
1.3827341558408897
40
1.3827341558408897
40
1.3827341558408897
40
1.3827341558408897
10
32.168721856711869
20
11.16497212516844
30
0
10
31.295795688895115
20
11.435683611516865
30
0
10
30.483704592115952
20
11.873052893586365
30
0
10
29.085126665800519
20
13.02768400525412
30
0
10
28.508821496174114
20
13.729713021998029
30
0
10
27.666503060490033
20
15.304244620167813
30
0
10
27.40399944447574
20
16.159025918453366
30
0
10
27.225373146317089
20
17.907671922124059
30
0
10
27.305742160772255
20
18.784076590543517
30
0
10
27.700421859583017
20
20.118200981831798
30
0
10
27.905749888948641
20
20.59737419099314
30
0
10
28.422345246556816
20
21.493027655611115
30
0
10
28.730780503805185
20
21.906964618064691
30
0
10
29.084695978789217
20
22.280286060197252
30
0
0
ARC
5
130
100
AcDbEntity
8
0
100
AcDbCircle
10
34.000000506639488
20
18.000000268220916
30
0
40
6.5177499999999924
210
0
220
-0
230
1
100
AcDbArc
50
41.049604139391782
51
138.95039586062458
0
SPLINE
5
131
100
AcDbEntity
8
0
100
AcDbSpline
70
0
71
3
72
18
73
14
74
0
42
0.000000001
43
0.0000000001
44
0.0000000001
40
0
40
0
40
0
40
0
40
0.25643898802187065
40
0.25643898802187065
40
0.51697728462951131
40
0.51697728462951131
40
0.78161359115773976
40
0.78161359115773976
40
1.0503466265513073
40
1.0503466265513073
40
1.2145934436883374
40
1.2145934436883374
40
1.3803517936350675
40
1.3803517936350675
40
1.3803517936350675
40
1.3803517936350675
10
38.915305034488512
20
22.280286060198687
30
0
10
39.503399192701416
20
21.659945400430839
30
0
10
39.963640474498952
20
20.929941004081929
30
0
10
40.585909482390043
20
19.322313327583803
30
0
10
40.737004674797433
20
18.458350490063186
30
0
10
40.701805098740564
20
16.706912468400141
30
0
10
40.510587572463841
20
15.836493751702815
30
0
10
39.801983363292905
20
14.203917241313533
30
0
10
39.2866245041658
20
13.459654027427581
30
0
10
38.250976293736294
20
12.451624633667857
30
0
10
37.81419855146185
20
12.117127965734372
30
0
10
36.867259561410421
20
11.554261405453548
30
0
10
36.359807957108309
20
11.328879248643034
30
0
10
35.831279156569465
20
11.16497212516907
30
0
0
ARC
5
132
100
AcDbEntity
8
0
100
AcDbCircle
10
34.000000506639488
20
18.000000268220916
30
0
40
7.0761000000000074
210
0
220
0
230
1
100
AcDbArc
50
255.00126406935507
51
284.99873593066474
0
SPLINE
5
133
100
AcDbEntity
8
0
100
AcDbSpline
70
0
71
3
72
18
73
14
74
0
42
0.000000001
43
0.0000000001
44
0.0000000001
40
0
40
0
40
0
40
0
40
0.27418175048135046
40
0.27418175048135046
40
0.54426132333650101
40
0.54426132333650101
40
0.81023746611718406
40
0.81023746611718406
40
1.0721089098544541
40
1.0721089098544541
40
1.2281788003513849
40
1.2281788003513849
40
1.3827341558408801
40
1.3827341558408801
40
1.3827341558408801
40
1.3827341558408801
10
32.168721856711869
20
-24.83502787483156
30
0
10
31.295795688895126
20
-24.564316388483142
30
0
10
30.483704592115956
20
-24.126947106413642
30
0
10
29.085126665800516
20
-22.972315994745884
30
0
10
28.508821496174114
20
-22.27028697800197
30
0
10
27.666503060490033
20
-20.695755379832189
30
0
10
27.40399944447574
20
-19.840974081546637
30
0
10
27.225373146317089
20
-18.092328077875944
30
0
10
27.305742160772255
20
-17.215923409456483
30
0
10
27.700421859583017
20
-15.881799018168202
30
0
10
27.905749888948641
20
-15.402625809006862
30
0
10
28.422345246556816
20
-14.506972344388886
30
0
10
28.730780503805185
20
-14.093035381935312
30
0
10
29.084695978789217
20
-13.719713939802748
30
0
0
ARC
5
134
100
AcDbEntity
8
0
100
AcDbCircle
10
34.000000506639488
20
-17.999999731779088
30
0
40
6.5177499999999959
210
0
220
-0
230
1
100
AcDbArc
50
41.049604139391825
51
138.95039586062455
0
SPLINE
5
135
100
AcDbEntity
8
0
100
AcDbSpline
70
0
71
3
72
18
73
14
74
0
42
0.000000001
43
0.0000000001
44
0.0000000001
40
0
40
0
40
0
40
0
40
0.25643898802186954
40
0.25643898802186954
40
0.51697728462950776
40
0.51697728462950776
40
0.78161359115773399
40
0.78161359115773399
40
1.0503466265512991
40
1.0503466265512991
40
1.214593443688329
40
1.214593443688329
40
1.3803517936350587
40
1.3803517936350587
40
1.3803517936350587
40
1.3803517936350587
10
38.915305034488512
20
-13.719713939801315
30
0
10
39.503399192701409
20
-14.340054599569159
30
0
10
39.963640474498945
20
-15.070058995918066
30
0
10
40.585909482390043
20
-16.677686672416197
30
0
10
40.737004674797433
20
-17.541649509936818
30
0
10
40.701805098740564
20
-19.293087531599859
30
0
10
40.510587572463848
20
-20.163506248297189
30
0
10
39.801983363292905
20
-21.79608275868647
30
0
10
39.286624504165793
20
-22.540345972572425
30
0
10
38.250976293736294
20
-23.548375366332145
30
0
10
37.81419855146185
20
-23.882872034265628
30
0
10
36.867259561410421
20
-24.445738594546455
30
0
10
36.359807957108309
20
-24.671120751356966
30
0
10
35.831279156569465
20
-24.835027874830931
30
0
0
ARC
5
136
100
AcDbEntity
8
0
100
AcDbCircle
10
34.000000506639488
20
-17.999999731779088
30
0
40
7.0761000000000056
210
0
220
0
230
1
100
AcDbArc
50
255.00126406935507
51
284.99873593066474
0
SPLINE
5
137
100
AcDbEntity
8
0
100
AcDbSpline
70
0
71
3
72
16
73
12
74
0
42
0.000000001
43
0.0000000001
44
0.0000000001
40
0
40
0
40
0
40
0
40
0.12077812750912109
40
0.12077812750912109
40
0.23637842365178727
40
0.23637842365178727
40
0.34679985359373822
40
0.34679985359373822
40
0.43031236308808796
40
0.43031236308808796
40
0.51066272838632898
40
0.51066272838632898
40
0.51066272838632898
40
0.51066272838632898
10
-25.405771001834076
20
-15.254265559346617
30
0
10
-25.081862052051314
20
-15.493357019930357
30
0
10
-24.806731316871065
20
-15.79218178080048
30
0
10
-24.398432413048763
20
-16.465203905001996
30
0
10
-24.263538139575239
20
-16.829438767268755
30
0
10
-24.146961721582198
20
-17.572308407147645
30
0
10
-24.159849263805164
20
-17.942727980635368
30
0
10
-24.309314283020768
20
-18.569702298727456
30
0
10
-24.414179655216106
20
-18.828393478844351
30
0
10
-24.695013264972346
20
-19.294661578938388
30
0
10
-24.866557811679307
20
-19.501123273436942
30
0
10
-25.067070059991661
20
-19.677056109425852
30
0
0
ARC
5
138
100
AcDbEntity
8
0
100
AcDbCircle
10
-27.000000402331352
20
-17.999999999999993
30
0
40
2.5590500000000032
210
0
220
0
230
1
100
AcDbArc
50
220.94568109092998
51
319.05431890906812
0
SPLINE
5
139
100
AcDbEntity
8
0
100
AcDbSpline
70
0
71
3
72
16
73
12
74
0
42
0.000000001
43
0.0000000001
44
0.0000000001
40
0
40
0
40
0
40
0
40
0.10156903938460257
40
0.10156903938460257
40
0.20830131945666464
40
0.20830131945666464
40
0.32019561544337305
40
0.32019561544337305
40
0.41268004571916289
40
0.41268004571916289
40
0.50835302735433108
40
0.50835302735433108
40
0.50835302735433108
40
0.50835302735433108
10
-28.932930744671101
20
-19.677056109425784
30
0
10
-29.187420662494702
20
-19.453762353806688
30
0
10
-29.394721670546829
20
-19.181814642521012
30
0
10
-29.704261921449863
20
-18.559433413704735
30
0
10
-29.797587543762759
20
-18.212036064320639
30
0
10
-29.850419507129722
20
-17.483618118588247
30
0
10
-29.802798739798348
20
-17.109138761355268
30
0
10
-29.589922445711654
20
-16.459716560506731
30
0
10
-29.447871803150477
20
-16.182844465929243
30
0
10
-29.079062685297661
20
-15.672713854297411
30
0
10
-28.85187052923223
20
-15.44444152584278
30
0
10
-28.594229802828547
20
-15.254265559346575
30
0
0
ARC
5
140
100
AcDbEntity
8
0
100
AcDbCircle
10
-27.000000402331352
20
-17.999999999999993
30
0
40
3.1749999999999994
210
0
220
-0
230
1
100
AcDbArc
50
59.859675909582009
51
120.14032409041629
0
SPLINE
5
141
100
AcDbEntity
8
0
100
AcDbSpline
70
0
71
3
72
16
73
12
74
0
42
0.000000001
43
0.0000000001
44
0.0000000001
40
0
40
0
40
0
40
0
40
0.12077812750912302
40
0.12077812750912302
40
0.23637842365179007
40
0.23637842365179007
40
0.34679985359373855
40
0.34679985359373855
40
0.43031236308808507
40
0.43031236308808507
40
0.51066272838632731
40
0.51066272838632731
40
0.51066272838632731
40
0.51066272838632731
10
-19.594229652757299
20
-20.745734440653379
30
0
10
-19.918138602540065
20
-20.506642980069635
30
0
10
-20.193269337720309
20
-20.20781821919951
30
0
10
-20.601568241542601
20
-19.534796094998004
30
0
10
-20.736462515016129
20
-19.170561232731242
30
0
10
-20.85303893300917
20
-18.427691592852359
30
0
10
-20.840151390786211
20
-18.057272019364628
30
0
10
-20.690686371570607
20
-17.43029770127254
30
0
10
-20.585820999375265
20
-17.171606521155645
30
0
10
-20.304987389619022
20
-16.705338421061597
30
0
10
-20.133442842912057
20
-16.498876726563051
30
0
10
-19.932930594599707
20
-16.322943890574145
30
0
0
ARC
5
142
100
AcDbEntity
8
0
100
AcDbCircle
10
-18.000000252260019
20
-18
30
0
40
2.5590499999999983
210
0
220
-0
230
1
100
AcDbArc
50
40.94568109093003
51
139.05431890906812
0
SPLINE
5
143
100
AcDbEntity
8
0
100
AcDbSpline
70
0
71
3
72
16
73
12
74
0
42
0.000000001
43
0.0000000001
44
0.0000000001
40
0
40
0
40
0
40
0
40
0.10156903938460095
40
0.10156903938460095
40
0.20830131945665817
40
0.20830131945665817
40
0.32019561544336261
40
0.32019561544336261
40
0.41268004571914652
40
0.41268004571914652
40
0.50835302735430721
40
0.50835302735430721
40
0.50835302735430721
40
0.50835302735430721
10
-16.067069909920278
20
-16.322943890574209
30
0
10
-15.812579992096683
20
-16.546237646193301
30
0
10
-15.605278984044551
20
-16.818185357478971
30
0
10
-15.295738733141508
20
-17.440566586295262
30
0
10
-15.202413110828614
20
-17.787963935679365
30
0
10
-15.149581147461653
20
-18.516381881411739
30
0
10
-15.19720191479302
20
-18.89086123864471
30
0
10
-15.410078208879712
20
-19.540283439493255
30
0
10
-15.552128851440886
20
-19.817155534070739
30
0
10
-15.9209379692937
20
-20.327286145702569
30
0
10
-16.148130125359124
20
-20.555558474157202
30
0
10
-16.405770851762817
20
-20.745734440653418
30
0
0
ARC
5
144
100
AcDbEntity
8
0
100
AcDbCircle
10
-18.000000252260019
20
-18
30
0
40
3.175000000000006
210
0
220
0
230
1
100
AcDbArc
50
239.85967590958194
51
300.14032409041641
0
SPLINE
5
145
100
AcDbEntity
8
0
100
AcDbSpline
70
0
71
3
72
16
73
12
74
0
42
0.000000001
43
0.0000000001
44
0.0000000001
40
0
40
0
40
0
40
0
40
0.1207781275091228
40
0.1207781275091228
40
0.23637842365179401
40
0.23637842365179401
40
0.34679985359374843
40
0.34679985359374843
40
0.43031236308809212
40
0.43031236308809212
40
0.51066272838632765
40
0.51066272838632765
40
0.51066272838632765
40
0.51066272838632765
10
-10.594229384536433
20
-20.745734440653372
30
0
10
-10.918138334319201
20
-20.506642980069628
30
0
10
-11.193269069499443
20
-20.20781821919951
30
0
10
-11.601567973321741
20
-19.534796094997997
30
0
10
-11.736462246795266
20
-19.170561232731242
30
0
10
-11.853038664788308
20
-18.427691592852362
30
0
10
-11.840151122565343
20
-18.057272019364635
30
0
10
-11.690686103349746
20
-17.430297701272572
30
0
10
-11.585820731154408
20
-17.17160652115566
30
0
10
-11.304987121398153
20
-16.705338421061594
30
0
10
-11.133442574691193
20
-16.498876726563051
30
0
10
-10.932930326378845
20
-16.322943890574145
30
0
0
ARC
5
146
100
AcDbEntity
8
0
100
AcDbCircle
10
-8.9999999840391549
20
-18
30
0
40
2.55905
210
0
220
-0
230
1
100
AcDbArc
50
40.945681090930123
51
139.05431890906814
0
SPLINE
5
147
100
AcDbEntity
8
0
100
AcDbSpline
70
0
71
3
72
16
73
12
74
0
42
0.000000001
43
0.0000000001
44
0.0000000001
40
0
40
0
40
0
40
0
40
0.10156903938460071
40
0.10156903938460071
40
0.20830131945665803
40
0.20830131945665803
40
0.3201956154433625
40
0.3201956154433625
40
0.41268004571914513
40
0.41268004571914513
40
0.5083530273543061
40
0.5083530273543061
40
0.5083530273543061
40
0.5083530273543061
10
-7.0670696416994154
20
-16.322943890574205
30
0
10
-6.8125797238758175
20
-16.546237646193298
30
0
10
-6.6052787158236885
20
-16.818185357478967
30
0
10
-6.2957384649206451
20
-17.440566586295258
30
0
10
-6.2024128426077505
20
-17.787963935679361
30
0
10
-6.1495808792407916
20
-18.516381881411736
30
0
10
-6.1972016465721547
20
-18.890861238644707
30
0
10
-6.4100779406588506
20
-19.540283439493255
30
0
10
-6.5521285832200258
20
-19.817155534070739
30
0
10
-6.9209377010728446
20
-20.32728614570258
30
0
10
-7.1481298571382776
20
-20.555558474157213
30
0
10
-7.4057705835419547
20
-20.745734440653415
30
0
0
ARC
5
148
100
AcDbEntity
8
0
100
AcDbCircle
10
-8.9999999840391549
20
-18
30
0
40
3.1750000000000025
210
0
220
0
230
1
100
AcDbArc
50
239.85967590958194
51
300.14032409041641
0
SPLINE
5
149
100
AcDbEntity
8
0
100
AcDbSpline
70
0
71
3
72
16
73
12
74
0
42
0.000000001
43
0.0000000001
44
0.0000000001
40
0
40
0
40
0
40
0
40
0.1207781275091195
40
0.1207781275091195
40
0.23637842365178408
40
0.23637842365178408
40
0.34679985359373078
40
0.34679985359373078
40
0.43031236308807447
40
0.43031236308807447
40
0.51066272838631266
40
0.51066272838631266
40
0.51066272838631266
40
0.51066272838631266
10
-10.594229416458155
20
-2.7457344406533721
30
0
10
-10.918138366240914
20
-2.506642980069635
30
0
10
-11.193269101421169
20
-2.2078182191995128
30
0
10
-11.601568005243465
20
-1.5347960949979924
30
0
10
-11.736462278716992
20
-1.1705612327312342
30
0
10
-11.85303869671003
20
-0.42769159285235692
30
0
10
-11.840151154487067
20
-0.057272019364629563
30
0
10
-11.690686135271465
20
0.56970229872745748
30
0
10
-11.585820763076121
20
0.82839347884435277
30
0
10
-11.304987153319876
20
1.2946615789384039
30
0
10
-11.133442606612913
20
1.5011232734369497
30
0
10
-10.932930358300565
20
1.6770561094258554
30
0
0
ARC
5
150
100
AcDbEntity
8
0
100
AcDbCircle
10
-9.0000000159608788
20
2.2204460492503131e-15
30
0
40
2.5590499999999978
210
0
220
-0
230
1
100
AcDbArc
50
40.945681090930002
51
139.05431890906812
0
SPLINE
5
151
100
AcDbEntity
8
0
100
AcDbSpline
70
0
71
3
72
16
73
12
74
0
42
0.000000001
43
0.0000000001
44
0.0000000001
40
0
40
0
40
0
40
0
40
0.1015690393846021
40
0.1015690393846021
40
0.20830131945666369
40
0.20830131945666369
40
0.3201956154433715
40
0.3201956154433715
40
0.41268004571915728
40
0.41268004571915728
40
0.50835302735432131
40
0.50835302735432131
40
0.50835302735432131
40
0.50835302735432131
10
-7.0670696736211376
20
1.6770561094257919
30
0
10
-6.8125797557975378
20
1.4537623538066977
30
0
10
-6.6052787477454089
20
1.1818146425210236
30
0
10
-6.2957384968423691
20
0.55943341370473898
30
0
10
-6.2024128745294753
20
0.21203606432063785
30
0
10
-6.1495809111625155
20
-0.51638188141173413
30
0
10
-6.1972016784938777
20
-0.89086123864470335
30
0
10
-6.4100779725805719
20
-1.5402834394932519
30
0
10
-6.5521286151417479
20
-1.817155534070739
30
0
10
-6.9209377329945641
20
-2.3272861457025744
30
0
10
-7.1481298890599918
20
-2.5555584741572055
30
0
10
-7.4057706154636787
20
-2.7457344406534165
30
0
0
ARC
5
152
100
AcDbEntity
8
0
100
AcDbCircle
10
-9.0000000159608788
20
2.2204460492503131e-15
30
0
40
3.1750000000000016
210
0
220
0
230
1
100
AcDbArc
50
239.85967590958194
51
300.14032409041641
0
SPLINE
5
153
100
AcDbEntity
8
0
100
AcDbSpline
70
0
71
3
72
16
73
12
74
0
42
0.000000001
43
0.0000000001
44
0.0000000001
40
0
40
0
40
0
40
0
40
0.12077812750911822
40
0.12077812750911822
40
0.23637842365178147
40
0.23637842365178147
40
0.3467998535937345
40
0.3467998535937345
40
0.43031236308808252
40
0.43031236308808252
40
0.51066272838632198
40
0.51066272838632198
40
0.51066272838632198
40
0.51066272838632198
10
-19.594229652757544
20
-2.7457344406532318
30
0
10
-19.918138602540278
20
-2.5066429800694685
30
0
10
-20.193269337720508
20
-2.2078182191993214
30
0
10
-20.601568241542747
20
-1.534796094997761
30
0
10
-20.736462515016242
20
-1.1705612327309913
30
0
10
-20.853038933009216
20
-0.42769159285207942
30
0
10
-20.840151390786211
20
-0.057272019364365975
30
0
10
-20.690686371570553
20
0.5697022987276863
30
0
10
-20.585820999375191
20
0.82839347884457848
30
0
10
-20.304987389618905
20
1.2946615789386042
30
0
10
-20.133442842911926
20
1.501123273437138
30
0
10
-19.932930594599558
20
1.6770561094260272
30
0
0
ARC
5
154
100
AcDbEntity
8
0
100
AcDbCircle
10
-18.000000252260023
20
1.9428902930940239e-15
30
0
40
2.5590499999999987
210
0
220
-0
230
1
100
AcDbArc
50
40.945681090924886
51
139.054318909063
0
SPLINE
5
155
100
AcDbEntity
8
0
100
AcDbSpline
70
0
71
3
72
16
73
12
74
0
42
0.000000001
43
0.0000000001
44
0.0000000001
40
0
40
0
40
0
40
0
40
0.10156903938460159
40
0.10156903938460159
40
0.20830131945666114
40
0.20830131945666114
40
0.320195615443367
40
0.320195615443367
40
0.41268004571915051
40
0.41268004571915051
40
0.50835302735431243
40
0.50835302735431243
40
0.50835302735431243
40
0.50835302735431243
10
-16.067069909920132
20
1.6770561094256191
30
0
10
-15.812579992096552
20
1.4537623538065034
30
0
10
-15.605278984044446
20
1.1818146425208134
30
0
10
-15.295738733141459
20
0.55943341370449728
30
0
10
-15.202413110828596
20
0.21203606432038768
30
0
10
-15.149581147461701
20
-0.51638188141199037
30
0
10
-15.1972019147931
20
-0.89086123864495614
30
0
10
-15.410078208879849
20
-1.5402834394934817
30
0
10
-15.552128851441047
20
-1.8171555340709542
30
0
10
-15.920937969293917
20
-2.3272861457027672
30
0
10
-16.148130125359373
20
-2.55555847415738
30
0
10
-16.405770851763066
20
-2.7457344406535604
30
0
0
ARC
5
156
100
AcDbEntity
8
0
100
AcDbCircle
10
-18.000000252260023
20
1.9428902930940239e-15
30
0
40
3.1750000000000012
210
0
220
0
230
1
100
AcDbArc
50
239.85967590957688
51
300.14032409041135
0
SPLINE
5
157
100
AcDbEntity
8
0
100
AcDbSpline
70
0
71
3
72
16
73
12
74
0
42
0.000000001
43
0.0000000001
44
0.0000000001
40
0
40
0
40
0
40
0
40
0.12077812750911886
40
0.12077812750911886
40
0.23637842365178258
40
0.23637842365178258
40
0.34679985359373089
40
0.34679985359373089
40
0.43031236308807441
40
0.43031236308807441
40
0.51066272838631266
40
0.51066272838631266
40
0.51066272838631266
40
0.51066272838631266
10
-10.594229652757548
20
15.254265559346772
30
0
10
-10.918138602540283
20
15.493357019930535
30
0
10
-11.193269337720508
20
15.79218178080068
30
0
10
-11.601568241542745
20
16.465203905002234
30
0
10
-11.736462515016242
20
16.829438767269004
30
0
10
-11.853038933009215
20
17.572308407147904
30
0
10
-11.840151390786215
20
17.942727980635624
30
0
10
-11.69068637157056
20
18.569702298727687
30
0
10
-11.585820999375196
20
18.828393478844582
30
0
10
-11.304987389618901
20
19.294661578938619
30
0
10
-11.13344284291192
20
19.501123273437145
30
0
10
-10.93293059459956
20
19.677056109426029
30
0
0
ARC
5
158
100
AcDbEntity
8
0
100
AcDbCircle
10
-9.0000002522600226
20
18
30
0
40
2.5590500000000027
210
0
220
-0
230
1
100
AcDbArc
50
40.945681090924964
51
139.05431890906294
0
SPLINE
5
159
100
AcDbEntity
8
0
100
AcDbSpline
70
0
71
3
72
16
73
12
74
0
42
0.000000001
43
0.0000000001
44
0.0000000001
40
0
40
0
40
0
40
0
40
0.10156903938460236
40
0.10156903938460236
40
0.2083013194566628
40
0.2083013194566628
40
0.32019561544336972
40
0.32019561544336972
40
0.41268004571915606
40
0.41268004571915606
40
0.50835302735432397
40
0.50835302735432397
40
0.50835302735432397
40
0.50835302735432397
10
-7.0670699099201304
20
19.677056109425621
30
0
10
-6.8125799920965493
20
19.453762353806503
30
0
10
-6.6052789840444435
20
19.181814642520809
30
0
10
-6.2957387331414605
20
18.559433413704493
30
0
10
-6.2024131108285987
20
18.212036064320383
30
0
10
-6.1495811474617055
20
17.483618118588005
30
0
10
-6.1972019147931023
20
17.109138761355037
30
0
10
-6.4100782088798596
20
16.459716560506504
30
0
10
-6.5521288514410667
20
16.182844465929026
30
0
10
-6.920937969293921
20
15.672713854297237
30
0
10
-7.1481301253593674
20
15.444441525842628
30
0
10
-7.4057708517630747
20
15.254265559346438
30
0
0
ARC
5
160
100
AcDbEntity
8
0
100
AcDbCircle
10
-9.0000002522600226
20
18
30
0
40
3.174999999999998
210
0
220
0
230
1
100
AcDbArc
50
239.85967590957677
51
300.14032409041118
0
SPLINE
5
161
100
AcDbEntity
8
0
100
AcDbSpline
70
0
71
3
72
16
73
12
74
0
42
0.000000001
43
0.0000000001
44
0.0000000001
40
0
40
0
40
0
40
0
40
0.12077812750912277
40
0.12077812750912277
40
0.23637842365179174
40
0.23637842365179174
40
0.34679985359374277
40
0.34679985359374277
40
0.43031236308809151
40
0.43031236308809151
40
0.5106627283863332
40
0.5106627283863332
40
0.5106627283863332
40
0.5106627283863332
10
-28.59422941498401
20
-2.7457344406532385
30
0
10
-28.918138364766754
20
-2.5066429800694672
30
0
10
-29.193269099946978
20
-2.2078182191993232
30
0
10
-29.601568003769213
20
-1.5347960949977726
30
0
10
-29.736462277242708
20
-1.1705612327310024
30
0
10
-29.853038695235682
20
-0.4276915928521125
30
0
10
-29.840151153012688
20
-0.057272019364386542
30
0
10
-29.69068613379703
20
0.56970229872769351
30
0
10
-29.585820761601664
20
0.82839347884457726
30
0
10
-29.304987151845381
20
1.2946615789385971
30
0
10
-29.133442605138406
20
1.5011232734371323
30
0
10
-28.932930356826038
20
1.6770561094260228
30
0
0
ARC
5
162
100
AcDbEntity
8
0
100
AcDbCircle
10
-27.000000014486496
20
2.4980018054066022e-15
30
0
40
2.55905
210
0
220
-0
230
1
100
AcDbArc
50
40.945681090924865
51
139.0543189090632
0
SPLINE
5
163
100
AcDbEntity
8
0
100
AcDbSpline
70
0
71
3
72
16
73
12
74
0
42
0.000000001
43
0.0000000001
44
0.0000000001
40
0
40
0
40
0
40
0
40
0.10156903938459948
40
0.10156903938459948
40
0.20830131945665337
40
0.20830131945665337
40
0.32019561544335878
40
0.32019561544335878
40
0.41268004571914207
40
0.41268004571914207
40
0.50835302735429677
40
0.50835302735429677
40
0.50835302735429677
40
0.50835302735429677
10
-25.067069672146602
20
1.677056109425622
30
0
10
-24.812579754323028
20
1.453762353806511
30
0
10
-24.605278746270919
20
1.1818146425208311
30
0
10
-24.295738495367925
20
0.55943341370449384
30
0
10
-24.202412873055067
20
0.21203606432037672
30
0
10
-24.149580909688172
20
-0.51638188141199459
30
0
10
-24.197201677019574
20
-0.89086123864496536
30
0
10
-24.410077971106322
20
-1.5402834394934739
30
0
10
-24.552128613667506
20
-1.817155534070942
30
0
10
-24.920937731520382
20
-2.3272861457027623
30
0
10
-25.148129887585831
20
-2.5555584741573738
30
0
10
-25.405770613989532
20
-2.7457344406535618
30
0
0
ARC
5
164
100
AcDbEntity
8
0
100
AcDbCircle
10
-27.000000014486496
20
2.4980018054066022e-15
30
0
40
3.1750000000000056
210
0
220
0
230
1
100
AcDbArc
50
239.85967590957705
51
300.14032409041124
0
SPLINE
5
165
100
AcDbEntity
8
0
100
AcDbSpline
70
0
71
3
72
16
73
12
74
0
42
0.000000001
43
0.0000000001
44
0.0000000001
40
0
40
0
40
0
40
0
40
0.12077812750912299
40
0.12077812750912299
40
0.23637842365178896
40
0.23637842365178896
40
0.346799853593737
40
0.346799853593737
40
0.43031236308808352
40
0.43031236308808352
40
0.51066272838632532
40
0.51066272838632532
40
0.51066272838632532
40
0.51066272838632532
10
-19.594229652757548
20
15.25426555934677
30
0
10
-19.918138602540296
20
15.493357019930542
30
0
10
-20.193269337720508
20
15.792181780800687
30
0
10
-20.601568241542733
20
16.465203905002223
30
0
10
-20.736462515016242
20
16.829438767268996
30
0
10
-20.853038933009213
20
17.572308407147904
30
0
10
-20.840151390786215
20
17.942727980635624
30
0
10
-20.69068637157056
20
18.569702298727698
30
0
10
-20.585820999375194
20
18.828393478844585
30
0
10
-20.304987389618905
20
19.294661578938616
30
0
10
-20.133442842911926
20
19.501123273437145
30
0
10
-19.932930594599558
20
19.677056109426029
30
0
0
ARC
5
166
100
AcDbEntity
8
0
100
AcDbCircle
10
-18.000000252260023
20
18
30
0
40
2.5590500000000005
210
0
220
-0
230
1
100
AcDbArc
50
40.9456810909249
51
139.05431890906294
0
SPLINE
5
167
100
AcDbEntity
8
0
100
AcDbSpline
70
0
71
3
72
16
73
12
74
0
42
0.000000001
43
0.0000000001
44
0.0000000001
40
0
40
0
40
0
40
0
40
0.10156903938460168
40
0.10156903938460168
40
0.20830131945666153
40
0.20830131945666153
40
0.32019561544336739
40
0.32019561544336739
40
0.41268004571915345
40
0.41268004571915345
40
0.50835302735431787
40
0.50835302735431787
40
0.50835302735431787
40
0.50835302735431787
10
-16.067069909920132
20
19.677056109425617
30
0
10
-15.812579992096552
20
19.4537623538065
30
0
10
-15.605278984044446
20
19.181814642520809
30
0
10
-15.295738733141464
20
18.559433413704497
30
0
10
-15.202413110828598
20
18.21203606432039
30
0
10
-15.149581147461706
20
17.483618118588005
30
0
10
-15.197201914793105
20
17.109138761355037
30
0
10
-15.410078208879856
20
16.459716560506514
30
0
10
-15.552128851441056
20
16.182844465929037
30
0
10
-15.92093796929392
20
15.672713854297236
30
0
10
-16.148130125359369
20
15.444441525842622
30
0
10
-16.405770851763069
20
15.254265559346438
30
0
0
ARC
5
168
100
AcDbEntity
8
0
100
AcDbCircle
10
-18.000000252260023
20
18
30
0
40
3.1750000000000016
210
0
220
0
230
1
100
AcDbArc
50
239.85967590957677
51
300.14032409041124
0
SPLINE
5
169
100
AcDbEntity
8
0
100
AcDbSpline
70
0
71
3
72
18
73
14
74
0
42
0.000000001
43
0.0000000001
44
0.0000000001
40
0
40
0
40
0
40
0
40
0.29553617764328066
40
0.29553617764328066
40
0.59517267039719657
40
0.59517267039719657
40
0.8989083257431465
40
0.8989083257431465
40
1.2067420054479787
40
1.2067420054479787
40
1.3942688108805243
40
1.3942688108805243
40
1.5833036139539001
40
1.5833036139539001
40
1.5833036139539001
40
1.5833036139539001
10
-28.330554413705187
20
22.93699796902867
30
0
10
-27.65682476327374
20
22.218283186102788
30
0
10
-27.13098945057763
20
21.374128238528503
30
0
10
-26.425046235870756
20
19.519426509082177
30
0
10
-26.256685184089417
20
18.524939821189783
30
0
10
-26.308438671244918
20
16.513157310062493
30
0
10
-26.533316691283197
20
15.515446823035974
30
0
10
-27.356225420595813
20
13.648362294571289
30
0
10
-27.951119495712618
20
12.799161045079046
30
0
10
-29.14224260341436
20
11.652794234052575
30
0
10
-29.642871578245892
20
11.2736371085683
30
0
10
-30.72654179191321
20
10.637133136347929
30
0
10
-31.306401047377932
20
10.383022317417637
30
0
10
-31.909923867713054
20
10.19904032078367
30
0
0
ARC
5
170
100
AcDbEntity
8
0
100
AcDbCircle
10
-34.000000252260023
20
17.999999999999979
30
0
40
8.0760999999999754
210
0
220
0
230
1
100
AcDbArc
50
255.00126406934854
51
284.99873593065786
0
SPLINE
5
171
100
AcDbEntity
8
0
100
AcDbSpline
70
0
71
3
72
18
73
14
74
0
42
0.000000001
43
0.0000000001
44
0.0000000001
40
0
40
0
40
0
40
0
40
0.31327052106323833
40
0.31327052106323833
40
0.62243825076252191
40
0.62243825076252191
40
0.92750207189318101
40
0.92750207189318101
40
1.2284608536503361
40
1.2284608536503361
40
1.4078280789372215
40
1.4078280789372215
40
1.5856844258697904
40
1.5856844258697904
40
1.5856844258697904
40
1.5856844258697904
10
-36.090076636806103
20
10.199040320783435
30
0
10
-37.08893012295902
20
10.503537603297284
30
0
10
-38.019135714107257
20
10.99896091574421
30
0
10
-39.62501507000092
20
12.311769722461774
30
0
10
-40.288498531652792
20
13.112388229961594
30
0
10
-41.262427871797072
20
14.912014016743417
30
0
10
-41.568089329031103
20
15.891117301658504
30
0
10
-41.78288524299699
20
17.89797880941726
30
0
10
-41.695178610648284
20
18.905773361363643
30
0
10
-41.248922037135188
20
20.441471659137726
30
0
10
-41.015634449015693
20
20.993425567733578
30
0
10
-40.426823244451413
20
22.026714875996092
30
0
10
-40.074376144267475
20
22.505030613456544
30
0
10
-39.6694460908151
20
22.93699796902839
30
0
0
ARC
5
172
100
AcDbEntity
8
0
100
AcDbCircle
10
-34.000000252260023
20
17.999999999999979
30
0
40
7.5177500000000084
210
0
220
-0
230
1
100
AcDbArc
50
41.049604139385579
51
138.95039586061725
0
LWPOLYLINE
5
173
100
AcDbEntity
8
0
100
AcDbPolyline
90
6
70
1
43
0.0
10
-1.2000000000000055
20
36.406836801011181
10
-1.1999999999999922
20
-36.406836801011309
10
-37.766168784104238
20
-36.406836801011309
10
-50.36540726659311
20
-14.584315612663588
10
-50.36540726659311
20
14.584315612663517
10
-37.766168784104288
20
36.406836801011181
0
LINE
5
174
100
AcDbEntity
8
0
100
AcDbLine
10
37.672323450966253
20
38.165384899645183
30
0
11
-0.80000000000000071
21
38.165384899645176
31
0
0
LINE
5
175
100
AcDbEntity
8
0
100
AcDbLine
10
-1.2000000000000011
20
38.165384899645062
30
0
11
-37.672323450966466
21
38.165384899645055
31
0
0
ELLIPSE
5
176
100
AcDbEntity
8
0
100
AcDbEllipse
10
-0.80000000000000004
20
37.989530089781795
30
0
11
-0.20000000000000004
21
0
31
0.0
40
0.87927404931697173
41
4.7123889803846932
42
6.2831853071795862
0
ELLIPSE
5
177
100
AcDbEntity
8
0
100
AcDbEllipse
10
-1.2000000000000015
20
37.989530089781674
30
0
11
0.19999999999999712
21
0
31
0.0
40
0.87927404931693454
41
6.2831853071795578
42
7.8539816339744801
0
LINE
5
178
100
AcDbEntity
8
0
100
AcDbLine
10
-1.2000000000000055
20
36.406836801011181
30
0
11
-1.000000000000004
21
36.406836801011181
31
0
0
LINE
5
179
100
AcDbEntity
8
0
100
AcDbLine
10
-0.80000000000000071
20
36.406836801011309
30
0
11
-1
21
36.406836801011309
31
0
0
LWPOLYLINE
5
180
100
AcDbEntity
8
0
100
AcDbPolyline
90
4
70
1
43
0.0
10
-1
20
-36.406836801011188
10
-0.80000000000000071
20
-36.406836801011188
10
-0.80000000000000071
20
36.406836801011309
10
-1
20
36.406836801011309
0
LWPOLYLINE
5
181
100
AcDbEntity
8
0
100
AcDbPolyline
90
4
70
1
43
0.0
10
-1.000000000000004
20
36.406836801011181
10
-1.2000000000000055
20
36.406836801011181
10
-1.1999999999999922
20
-36.406836801011309
10
-0.99999999999997891
20
-36.406836801011309
0
LINE
5
182
100
AcDbEntity
8
0
100
AcDbLine
10
-0.99999999999999545
20
-37.598008929519807
30
0
11
-1.0000000000000047
21
37.598008929519679
31
0
0
LINE
5
183
100
AcDbEntity
8
0
100
AcDbLine
10
-0.80000000000000071
20
38.165384899645183
30
0
11
-0.80000000000000071
21
36.406836801011309
31
0
0
LINE
5
184
100
AcDbEntity
8
0
100
AcDbLine
10
-0.80000000000000071
20
36.406836801011309
30
0
11
37.766168784104238
21
36.406836801011309
31
0
0
LINE
5
185
100
AcDbEntity
8
0
100
AcDbLine
10
38.579542733884857
20
37.815641807584328
30
0
11
37.766168784104238
21
36.406836801011309
31
0
0
ELLIPSE
5
186
100
AcDbEntity
8
0
100
AcDbEllipse
10
37.67232345096626
20
36.406836801011309
30
0
11
3.0776164898802523
21
-1.2910849346466509
31
0.0
40
0.49630899676009582
41
1.4833143751592013
42
1.7760693180598768
0
LINE
5
187
100
AcDbEntity
8
0
100
AcDbLine
10
37.67232345096626
20
38.16538489964519
30
0
11
-0.80000000000000071
21
38.165384899645183
31
0
0
LINE
5
188
100
AcDbEntity
8
0
100
AcDbLine
10
-0.80000000000000071
20
36.406836801011309
30
0
11
-1
21
36.406836801011309
31
0
0
LINE
5
189
100
AcDbEntity
8
0
100
AcDbLine
10
-0.80000000000000071
20
38.165384899645183
30
0
11
-0.80000000000000071
21
36.406836801011309
31
0
0
ELLIPSE
5
190
100
AcDbEntity
8
0
100
AcDbEllipse
10
-0.80000000000000004
20
37.989530089781795
30
0
11
-0.20000000000000004
21
0
31
0.0
40
0.87927404931697173
41
4.7123889803846932
42
6.2831853071795862
0
LINE
5
191
100
AcDbEntity
8
0
100
AcDbLine
10
-1
20
36.406836801011309
30
0
11
-1
21
37.989530089781795
31
0
0
ELLIPSE
5
192
100
AcDbEntity
8
0
100
AcDbEllipse
10
-1.2000000000000015
20
37.989530089781674
30
0
11
0.19999999999999712
21
0
31
0.0
40
0.87927404931693454
41
6.2831853071795578
42
7.8539816339744801
0
LINE
5
193
100
AcDbEntity
8
0
100
AcDbLine
10
-1.2000000000000008
20
36.406836801011181
30
0
11
-1.2000000000000011
21
38.165384899645055
31
0
0
LINE
5
194
100
AcDbEntity
8
0
100
AcDbLine
10
-1.2000000000000008
20
36.406836801011181
30
0
11
-1.000000000000004
21
36.406836801011181
31
0
0
LINE
5
195
100
AcDbEntity
8
0
100
AcDbLine
10
-1.0000000000000044
20
37.989530089781674
30
0
11
-1.000000000000004
21
36.406836801011181
31
0
0
LINE
5
196
100
AcDbEntity
8
0
100
AcDbLine
10
-1.2000000000000008
20
36.406836801011181
30
0
11
-1.2000000000000015
21
38.165384899645062
31
0
0
LINE
5
197
100
AcDbEntity
8
0
100
AcDbLine
10
-1.2000000000000015
20
38.165384899645062
30
0
11
-37.672323450966466
21
38.165384899645055
31
0
0
ELLIPSE
5
198
100
AcDbEntity
8
0
100
AcDbEllipse
10
-37.672323450966466
20
36.406836801011181
30
0
11
-3.0776164898802714
21
-1.2910849346466513
31
0.0
40
0.4963089967600926
41
4.5071159891197103
42
4.7998709339806211
0
LINE
5
199
100
AcDbEntity
8
0
100
AcDbLine
10
-37.766168784104281
20
36.406836801011181
30
0
11
-38.579542739785097
21
37.815641804801437
31
0
0
LINE
5
200
100
AcDbEntity
8
0
100
AcDbLine
10
-37.766168784104281
20
36.406836801011181
30
0
11
-1.2000000000000008
21
36.406836801011181
31
0
0
LINE
5
201
100
AcDbEntity
8
0
100
AcDbLine
10
-37.766168784104281
20
36.406836801011181
30
0
11
-38.579542739617537
21
37.815641817513402
31
0
0
SPLINE
5
202
100
AcDbEntity
8
0
100
AcDbSpline
70
0
71
3
72
8
73
4
74
0
42
0.000000001
43
0.0000000001
44
0.0000000001
40
1.0271118960714967
40
1.0271118960714967
40
1.0271118960714967
40
1.0271118960714967
40
1.059871597407132
40
1.059871597407132
40
1.059871597407132
40
1.059871597407132
10
-38.823483112774888
20
37.807517289847972
30
0
10
-38.747733427984855
20
37.817330011145756
30
0
10
-38.665976745625329
20
37.820174866716606
30
0
10
-38.579542749056628
20
37.815641808379922
30
0
0
ELLIPSE
5
203
100
AcDbEntity
8
0
100
AcDbEllipse
10
-37.813091450673191
20
36.325564358487227
30
0
11
2.1410908772936303
21
0.57370357149246676
31
0.0
40
0.79258972077335721
41
1.8413409593528691
42
2.241002444700416
0
LINE
5
204
100
AcDbEntity
8
0
100
AcDbLine
10
-39.499379326562199
20
37.299143117562949
30
0
11
-52.051695142482117
21
15.557894371739245
31
0
0
LINE
5
205
100
AcDbEntity
8
0
100
AcDbLine
10
-50.36540726659311
20
14.584315612663518
30
0
11
-52.051695142482117
21
15.557894371739245
31
0
0
LINE
5
206
100
AcDbEntity
8
0
100
AcDbLine
10
-50.36540726659311
20
14.584315612663518
30
0
11
-37.766168784104281
21
36.406836801011181
31
0
0
LWPOLYLINE
5
207
100
AcDbEntity
8
0
100
AcDbPolyline
90
4
70
1
43
0.0
10
-50.36540726659311
20
14.584315612663517
10
-52.325381905757204
20
14.584315612663525
10
-52.325381905757204
20
-14.584315612663596
10
-50.36540726659311
20
-14.584315612663589
0
LINE
5
208
100
AcDbEntity
8
0
100
AcDbLine
10
-38.579542733884857
20
-37.815641807584321
30
0
11
-37.766168784104238
21
-36.406836801011309
31
0
0
LINE
5
209
100
AcDbEntity
8
0
100
AcDbLine
10
-37.766168784104238
20
-36.406836801011309
30
0
11
-50.36540726659311
21
-14.584315612663588
31
0
0
LINE
5
210
100
AcDbEntity
8
0
100
AcDbLine
10
-52.05169514248211
20
-15.557894371739318
30
0
11
-50.36540726659311
21
-14.584315612663588
31
0
0
LINE
5
211
100
AcDbEntity
8
0
100
AcDbLine
10
-52.05169514248211
20
-15.557894371739318
30
0
11
-39.499379326562234
21
-37.299143117562927
31
0
0
ELLIPSE
5
212
100
AcDbEntity
8
0
100
AcDbEllipse
10
-37.813091450673234
20
-36.325564358487206
30
0
11
2.1410908772936255
21
-0.57370357149244455
31
0.0
40
0.79258972077336087
41
4.0421828624791534
42
4.441844347826752
0
SPLINE
5
213
100
AcDbEntity
8
0
100
AcDbSpline
70
0
71
3
72
10
73
6
74
0
42
0.000000001
43
0.0000000001
44
0.0000000001
40
1.9050884549371396
40
1.9050884549371396
40
1.9050884549371396
40
1.9050884549371396
40
1.9327874195757129
40
1.9327874195757129
40
1.9385603055078964
40
1.9385603055078964
40
1.9385603055078964
40
1.9385603055078964
10
-38.579542733884871
20
-37.815641807584313
30
0
10
-38.65227855724504
20
-37.81945646158367
30
0
10
-38.720785081998272
20
-37.817983441768554
30
0
10
-38.797126234647699
20
-37.810699182913261
30
0
10
-38.810310717071189
20
-37.809223660616709
30
0
10
-38.823483112774831
20
-37.807517289848008
30
0
0
LINE
5
214
100
AcDbEntity
8
0
100
AcDbLine
10
-52.05169514248211
20
-15.557894371739318
30
0
11
-50.36540726659311
21
-14.584315612663589
31
0
0
LINE
5
215
100
AcDbEntity
8
0
100
AcDbLine
10
-50.36540726659311
20
-14.584315612663589
30
0
11
-52.325381905757204
21
-14.584315612663602
31
0
0
ELLIPSE
5
216
100
AcDbEntity
8
0
100
AcDbEllipse
10
-50.36540726659311
20
-14.584315612663589
30
0
11
-0.99999999999997691
21
1.7320508075688701
31
0.0
40
0.97357875907572045
41
1.0587138470428745
42
1.5707963267949019
0
LINE
5
217
100
AcDbEntity
8
0
100
AcDbLine
10
-52.325381905757204
20
14.584315612663525
30
0
11
-50.36540726659311
21
14.584315612663517
31
0
0
LINE
5
218
100
AcDbEntity
8
0
100
AcDbLine
10
-50.36540726659311
20
14.584315612663517
30
0
11
-52.051695142482117
21
15.557894371739243
31
0
0
ELLIPSE
5
219
100
AcDbEntity
8
0
100
AcDbEllipse
10
-50.36540726659311
20
14.584315612663517
30
0
11
1.0000000000000819
21
1.732050807568827
31
0.0
40
0.97357875907572144
41
1.5707963267949463
42
2.0828788065469697
0
LINE
5
220
100
AcDbEntity
8
0
100
AcDbLine
10
-1.1999999999999917
20
-38.165384899645183
30
0
11
-1.199999999999992
21
-36.406836801011309
31
0
0
LINE
5
221
100
AcDbEntity
8
0
100
AcDbLine
10
-1.199999999999992
20
-36.406836801011309
30
0
11
-37.766168784104238
21
-36.406836801011309
31
0
0
LINE
5
222
100
AcDbEntity
8
0
100
AcDbLine
10
-38.579542733884857
20
-37.815641807584321
30
0
11
-37.766168784104238
21
-36.406836801011309
31
0
0
ELLIPSE
5
223
100
AcDbEntity
8
0
100
AcDbEllipse
10
-37.672323450966246
20
-36.406836801011309
30
0
11
-3.0776164898802545
21
1.2910849346466509
31
0.0
40
0.49630899676009516
41
1.4833143751591948
42
1.7760693180598763
0
LINE
5
224
100
AcDbEntity
8
0
100
AcDbLine
10
-37.672323450966246
20
-38.16538489964519
30
0
11
-1.1999999999999917
21
-38.165384899645183
31
0
0
LINE
5
225
100
AcDbEntity
8
0
100
AcDbLine
10
-1.1999999999999922
20
-36.406836801011309
30
0
11
-0.99999999999997891
21
-36.406836801011309
31
0
0
LINE
5
226
100
AcDbEntity
8
0
100
AcDbLine
10
-1.1999999999999917
20
-38.165384899645183
30
0
11
-1.1999999999999922
21
-36.406836801011309
31
0
0
ELLIPSE
5
227
100
AcDbEntity
8
0
100
AcDbEllipse
10
-1.1999999999999784
20
-37.989530089781795
30
0
11
0.20000000000000004
21
0
31
0.0
40
0.87927404931696673
41
4.7123889803846231
42
6.2831853071795862
0
LINE
5
228
100
AcDbEntity
8
0
100
AcDbLine
10
-0.99999999999997891
20
-36.406836801011309
30
0
11
-0.99999999999997824
21
-37.989530089781795
31
0
0
ELLIPSE
5
229
100
AcDbEntity
8
0
100
AcDbEllipse
10
-0.80000000000000071
20
-37.989530089781674
30
0
11
-0.19999999999999934
21
0
31
0.0
40
0.87927404931696163
41
0
42
1.5707963267948966
0
LINE
5
230
100
AcDbEntity
8
0
100
AcDbLine
10
-0.80000000000000071
20
-36.406836801011188
30
0
11
-0.80000000000000071
21
-38.165384899645069
31
0
0
LINE
5
231
100
AcDbEntity
8
0
100
AcDbLine
10
-0.80000000000000071
20
-36.406836801011188
30
0
11
-1
21
-36.406836801011188
31
0
0
LINE
5
232
100
AcDbEntity
8
0
100
AcDbLine
10
-1
20
-37.989530089781674
30
0
11
-1
21
-36.406836801011188
31
0
0
LINE
5
233
100
AcDbEntity
8
0
100
AcDbLine
10
-0.80000000000000071
20
-36.406836801011188
30
0
11
-0.80000000000000071
21
-38.165384899645062
31
0
0
LINE
5
234
100
AcDbEntity
8
0
100
AcDbLine
10
-0.80000000000000071
20
-38.165384899645062
30
0
11
37.672323450966452
21
-38.165384899645062
31
0
0
ELLIPSE
5
235
100
AcDbEntity
8
0
100
AcDbEllipse
10
37.672323450966459
20
-36.406836801011188
30
0
11
3.0776164898802518
21
1.2910849346466553
31
0.0
40
0.49630899676009482
41
4.5071159891197059
42
4.7998709339806229
0
LINE
5
236
100
AcDbEntity
8
0
100
AcDbLine
10
37.766168784104281
20
-36.406836801011188
30
0
11
38.579542739785097
21
-37.815641804801444
31
0
0
LINE
5
237
100
AcDbEntity
8
0
100
AcDbLine
10
37.766168784104281
20
-36.406836801011188
30
0
11
-0.80000000000000071
21
-36.406836801011188
31
0
0
LINE
5
238
100
AcDbEntity
8
0
100
AcDbLine
10
37.766168784104281
20
-36.406836801011188
30
0
11
38.57954273961753
21
-37.815641817513409
31
0
0
SPLINE
5
239
100
AcDbEntity
8
0
100
AcDbSpline
70
0
71
3
72
8
73
4
74
0
42
0.000000001
43
0.0000000001
44
0.0000000001
40
1.0271118960714907
40
1.0271118960714907
40
1.0271118960714907
40
1.0271118960714907
40
1.0598715974071264
40
1.0598715974071264
40
1.0598715974071264
40
1.0598715974071264
10
38.823483112774866
20
-37.807517289847979
30
0
10
38.747733427984834
20
-37.817330011145771
30
0
10
38.665976745625329
20
-37.82017486671662
30
0
10
38.579542749056628
20
-37.815641808379944
30
0
0
ELLIPSE
5
240
100
AcDbEntity
8
0
100
AcDbEllipse
10
37.813091450673191
20
-36.32556435848722
30
0
11
-2.1410908772936295
21
-0.57370357149246709
31
0.0
40
0.79258972077335832
41
1.8413409593528622
42
2.2410024447004164
0
LINE
5
241
100
AcDbEntity
8
0
100
AcDbLine
10
39.499379326562192
20
-37.299143117562956
30
0
11
52.05169514248211
21
-15.55789437173928
31
0
0
LINE
5
242
100
AcDbEntity
8
0
100
AcDbLine
10
50.36540726659311
20
-14.584315612663527
30
0
11
52.05169514248211
21
-15.55789437173928
31
0
0
LINE
5
243
100
AcDbEntity
8
0
100
AcDbLine
10
50.36540726659311
20
-14.584315612663527
30
0
11
37.766168784104281
21
-36.406836801011188
31
0
0
LINE
5
244
100
AcDbEntity
8
0
100
AcDbLine
10
52.325381905757204
20
-14.584315612663561
30
0
11
50.36540726659311
21
-14.584315612663527
31
0
0
LINE
5
245
100
AcDbEntity
8
0
100
AcDbLine
10
50.36540726659311
20
-14.584315612663527
30
0
11
52.051695142482103
21
-15.557894371739277
31
0
0
ELLIPSE
5
246
100
AcDbEntity
8
0
100
AcDbEllipse
10
50.36540726659311
20
-14.584315612663527
30
0
11
-1.0000000000001006
21
-1.7320508075688268
31
0.0
40
0.97357875907572144
41
1.5707963267949401
42
2.0828788065469688
0
LWPOLYLINE
5
247
100
AcDbEntity
8
0
100
AcDbPolyline
90
4
70
1
43
0.0
10
50.36540726659311
20
-14.584315612663527
10
52.325381905757204
20
-14.584315612663561
10
52.325381905757204
20
14.584315612663584
10
50.36540726659311
20
14.584315612663563
0
LINE
5
248
100
AcDbEntity
8
0
100
AcDbLine
10
38.579542733884857
20
37.815641807584328
30
0
11
37.766168784104231
21
36.406836801011309
31
0
0
LINE
5
249
100
AcDbEntity
8
0
100
AcDbLine
10
37.766168784104231
20
36.406836801011309
30
0
11
50.36540726659311
21
14.584315612663566
31
0
0
LINE
5
250
100
AcDbEntity
8
0
100
AcDbLine
10
52.051695142482103
20
15.5578943717393
30
0
11
50.36540726659311
21
14.584315612663566
31
0
0
LINE
5
251
100
AcDbEntity
8
0
100
AcDbLine
10
52.051695142482103
20
15.5578943717393
30
0
11
39.499379326562234
21
37.299143117562927
31
0
0
ELLIPSE
5
252
100
AcDbEntity
8
0
100
AcDbEllipse
10
37.81309145067322
20
36.325564358487206
30
0
11
2.1410908772935771
21
-0.57370357149264795
31
0.0
40
0.79258972077336043
41
0.90059020888947405
42
1.3002516942371283
0
SPLINE
5
253
100
AcDbEntity
8
0
100
AcDbSpline
70
0
71
3
72
10
73
6
74
0
42
0.000000001
43
0.0000000001
44
0.0000000001
40
1.9050884549371474
40
1.9050884549371474
40
1.9050884549371474
40
1.9050884549371474
40
1.9327874195757175
40
1.9327874195757175
40
1.9385603055078986
40
1.9385603055078986
40
1.9385603055078986
40
1.9385603055078986
10
38.579542733884878
20
37.815641807584313
30
0
10
38.65227855724504
20
37.81945646158367
30
0
10
38.720785081998258
20
37.817983441768547
30
0
10
38.797126234647664
20
37.810699182913261
30
0
10
38.810310717071125
20
37.80922366061673
30
0
10
38.82348311277476
20
37.807517289848029
30
0
0
ENDSEC
0
SECTION
2
OBJECTS
0
DICTIONARY
5
C
100
AcDbDictionary
3
ACAD_GROUP
350
D
3
ACAD_MLINESTYLE
350
17
0
DICTIONARY
5
D
100
AcDbDictionary
0
DICTIONARY
5
1A
330
C
100
AcDbDictionary
0
DICTIONARY
5
17
100
AcDbDictionary
0
ENDSEC
0
EOF
