0
SECTION
2
HEADER
9
$INSUNITS
70
4
9
$ACADVER
1
AC1014
9
$HANDSEED
5
FFFF
0
ENDSEC
0
SECTION
2
TABLES
0
TABLE
2
VPORT
5
8
100
AcDbSymbolTable
0
ENDTAB
0
TABLE
2
LTYPE
5
5
100
AcDbSymbolTable
0
LTYPE
5
14
100
AcDbSymbolTableRecord
100
AcDbLinetypeTableRecord
2
BYBLOCK
70
0
0
LTYPE
5
15
100
AcDbSymbolTableRecord
100
AcDbLinetypeTableRecord
2
BYLAYER
70
0
0
ENDTAB
0
TABLE
2
LAYER
5
2
100
AcDbSymbolTable
70
2
0
LAYER
5
50
100
AcDbSymbolTableRecord
100
AcDbLayerTableRecord
2
0
70
0
6
CONTINUOUS
0
ENDTAB
0
TABLE
2
STYLE
5
3
100
AcDbSymbolTable
70
1
0
STYLE
5
11
100
AcDbSymbolTableRecord
100
AcDbTextStyleTableRecord
2
STANDARD
70
0
0
ENDTAB
0
TABLE
2
VIEW
5
6
100
AcDbSymbolTable
70
0
0
ENDTAB
0
TABLE
2
UCS
5
7
100
AcDbSymbolTable
70
0
0
ENDTAB
0
TABLE
2
APPID
5
9
100
AcDbSymbolTable
70
2
0
APPID
5
12
100
AcDbSymbolTableRecord
100
AcDbRegAppTableRecord
2
ACAD
70
0
0
ENDTAB
0
TABLE
2
DIMSTYLE
5
A
100
AcDbSymbolTable
70
1
0
ENDTAB
0
TABLE
2
BLOCK_RECORD
5
1
100
AcDbSymbolTable
70
1
0
BLOCK_RECORD
5
1F
100
AcDbSymbolTableRecord
100
AcDbBlockTableRecord
2
*MODEL_SPACE
0
BLOCK_RECORD
5
1B
100
AcDbSymbolTableRecord
100
AcDbBlockTableRecord
2
*PAPER_SPACE
0
ENDTAB
0
ENDSEC
0
SECTION
2
BLOCKS
0
BLOCK
5
20
100
AcDbEntity
100
AcDbBlockBegin
2
*MODEL_SPACE
0
ENDBLK
5
21
100
AcDbEntity
100
AcDbBlockEnd
0
BLOCK
5
1C
100
AcDbEntity
100
AcDbBlockBegin
2
*PAPER_SPACE
0
ENDBLK
5
1D
100
AcDbEntity
100
AcDbBlockEnd
0
ENDSEC
0
SECTION
2
ENTITIES
0
CIRCLE
5
100
100
AcDbEntity
8
0
100
AcDbCircle
10
-36.000000536441803
20
-18.000000268220901
30
0
40
5.0000000000000018
210
-0
220
0
230
1
0
LWPOLYLINE
5
101
100
AcDbEntity
8
0
100
AcDbPolyline
90
6
70
1
43
0.0
10
0.80000000000000004
20
36.406834960552523
10
0.80000000000000071
20
-36.406834960552473
10
-37.680182006928391
20
-36.406834960552473
10
-50.279604454504891
20
-14.58399513532617
10
-50.279604454504891
20
14.58399513532617
10
-37.680182006928369
20
36.406834960552523
0
SPLINE
5
102
100
AcDbEntity
8
0
100
AcDbSpline
70
0
71
3
72
16
73
12
74
0
42
0.000000001
43
0.0000000001
44
0.0000000001
40
0
40
0
40
0
40
0
40
0.12077812750911979
40
0.12077812750911979
40
0.23637842365178502
40
0.23637842365178502
40
0.34679985359373405
40
0.34679985359373405
40
0.43031236308807758
40
0.43031236308807758
40
0.51066272838635318
40
0.51066272838635318
40
0.51066272838635318
40
0.51066272838635318
10
-16.405770851762252
20
2.7457344406530915
30
0
10
-16.081861901979536
20
2.5066429800692958
30
0
10
-15.806731166799338
20
2.2078182191991251
30
0
10
-15.39843226297716
20
1.5347960949975312
30
0
10
-15.2635379895037
20
1.1705612327307493
30
0
10
-15.146961571510793
20
0.42769159285184499
30
0
10
-15.159849113733824
20
0.057272019364122476
30
0
10
-15.309314132949536
20
-0.56970229872792755
30
0
10
-15.414179505144922
20
-0.82839347884480952
30
0
10
-15.695013114901322
20
-1.2946615789389249
30
0
10
-15.866557661608255
20
-1.501123273437257
30
0
10
-16.067069909920487
20
-1.6770561094260283
30
0
0
ARC
5
103
100
AcDbEntity
8
0
100
AcDbCircle
10
-18.000000252260023
20
2.2204460492503131e-15
30
0
40
2.55905
210
0
220
0
230
1
100
AcDbArc
50
220.94568109091992
51
319.05431890906289
0
SPLINE
5
104
100
AcDbEntity
8
0
100
AcDbSpline
70
0
71
3
72
16
73
12
74
0
42
0.000000001
43
0.0000000001
44
0.0000000001
40
0
40
0
40
0
40
0
40
0.10156903938460095
40
0.10156903938460095
40
0.20830131945665881
40
0.20830131945665881
40
0.32019561544336317
40
0.32019561544336317
40
0.41268004571914729
40
0.41268004571914729
40
0.50835302735425913
40
0.50835302735425913
40
0.50835302735425913
40
0.50835302735425913
10
-19.932930594600066
20
-1.6770561094254495
30
0
10
-20.187420512423625
20
-1.4537623538063125
30
0
10
-20.394721520475706
20
-1.181814642520608
30
0
10
-20.70426177137864
20
-0.5594334137042557
30
0
10
-20.797587393691469
20
-0.21203606432013436
30
0
10
-20.8504193570583
20
0.51638188141223917
30
0
10
-20.802798589726876
20
0.89086123864519662
30
0
10
-20.589922295640058
20
1.5402834394937261
30
0
10
-20.447871653078824
20
1.8171555340711949
30
0
10
-20.07906253522604
20
2.3272861457027942
30
0
10
-19.851870379160772
20
2.5555584741573112
30
0
10
-19.594229652756987
20
2.74573444065356
30
0
0
ARC
5
105
100
AcDbEntity
8
0
100
AcDbCircle
10
-18.000000252260023
20
2.2204460492503131e-15
30
0
40
3.1750000000000012
210
0
220
-0
230
1
100
AcDbArc
50
59.859675909571706
51
120.14032409041145
0
SPLINE
5
106
100
AcDbEntity
8
0
100
AcDbSpline
70
0
71
3
72
16
73
12
74
0
42
0.000000001
43
0.0000000001
44
0.0000000001
40
0
40
0
40
0
40
0
40
0.12077812750912033
40
0.12077812750912033
40
0.23637842365178524
40
0.23637842365178524
40
0.34679985359373278
40
0.34679985359373278
40
0.43031236308807619
40
0.43031236308807619
40
0.51066272838634974
40
0.51066272838634974
40
0.51066272838634974
40
0.51066272838634974
10
-7.4057706154631138
20
2.7457344406530919
30
0
10
-7.0818616656803961
20
2.5066429800692958
30
0
10
-6.8067309305001986
20
2.2078182191991251
30
0
10
-6.398432026678023
20
1.5347960949975357
30
0
10
-6.2635377532045577
20
1.1705612327307526
30
0
10
-6.1469613352116523
20
0.42769159285184954
30
0
10
-6.1598488774346825
20
0.057272019364126119
30
0
10
-6.3093138966503961
20
-0.56970229872792888
30
0
10
-6.4141792688457819
20
-0.82839347884480818
30
0
10
-6.6950128786021743
20
-1.2946615789389146
30
0
10
-6.8665574253091091
20
-1.5011232734372515
30
0
10
-7.0670696736213419
20
-1.6770561094260252
30
0
0
ARC
5
107
100
AcDbEntity
8
0
100
AcDbCircle
10
-9.0000000159608788
20
2.2204460492503131e-15
30
0
40
2.55905
210
0
220
0
230
1
100
AcDbArc
50
220.94568109091992
51
319.054318909063
0
SPLINE
5
108
100
AcDbEntity
8
0
100
AcDbSpline
70
0
71
3
72
16
73
12
74
0
42
0.000000001
43
0.0000000001
44
0.0000000001
40
0
40
0
40
0
40
0
40
0.10156903938460182
40
0.10156903938460182
40
0.20830131945666253
40
0.20830131945666253
40
0.32019561544336894
40
0.32019561544336894
40
0.41268004571915412
40
0.41268004571915412
40
0.50835302735426158
40
0.50835302735426158
40
0.50835302735426158
40
0.50835302735426158
10
-10.932930358300917
20
-1.6770561094254477
30
0
10
-11.187420276124477
20
-1.4537623538063094
30
0
10
-11.394721284176558
20
-1.1818146425205998
30
0
10
-11.704261535079487
20
-0.55943341370426003
30
0
10
-11.79758715739232
20
-0.21203606432014302
30
0
10
-11.850419120759152
20
0.51638188141223951
30
0
10
-11.802798353427724
20
0.89086123864519973
30
0
10
-11.589922059340914
20
1.5402834394937137
30
0
10
-11.447871416779687
20
1.8171555340711771
30
0
10
-11.079062298926896
20
2.3272861457027876
30
0
10
-10.851870142861632
20
2.5555584741573041
30
0
10
-10.594229416457846
20
2.7457344406535551
30
0
0
ARC
5
109
100
AcDbEntity
8
0
100
AcDbCircle
10
-9.0000000159608788
20
2.2204460492503131e-15
30
0
40
3.1749999999999998
210
0
220
-0
230
1
100
AcDbArc
50
59.859675909571784
51
120.14032409041158
0
SPLINE
5
110
100
AcDbEntity
8
0
100
AcDbSpline
70
0
71
3
72
16
73
12
74
0
42
0.000000001
43
0.0000000001
44
0.0000000001
40
0
40
0
40
0
40
0
40
0.12077812750912026
40
0.12077812750912026
40
0.23637842365178513
40
0.23637842365178513
40
0.34679985359373416
40
0.34679985359373416
40
0.43031236308807652
40
0.43031236308807652
40
0.51066272838634486
40
0.51066272838634486
40
0.51066272838634486
40
0.51066272838634486
10
-25.405770613988736
20
2.7457344406531008
30
0
10
-25.081861664206016
20
2.5066429800693051
30
0
10
-24.806730929025818
20
2.2078182191991367
30
0
10
-24.398432025203643
20
1.534796094997553
30
0
10
-24.263537751730176
20
1.1705612327307693
30
0
10
-24.146961333737266
20
0.4276915928518582
30
0
10
-24.159848875960293
20
0.057272019364137776
30
0
10
-24.309313895176004
20
-0.56970229872790634
30
0
10
-24.414179267371384
20
-0.82839347884479431
30
0
10
-24.695012877127777
20
-1.2946615789389015
30
0
10
-24.866557423834713
20
-1.5011232734372435
30
0
10
-25.06706967214695
20
-1.6770561094260201
30
0
0
ARC
5
111
100
AcDbEntity
8
0
100
AcDbCircle
10
-27.000000014486496
20
1.1102230246251565e-15
30
0
40
2.5590499999999965
210
0
220
0
230
1
100
AcDbArc
50
220.94568109091986
51
319.05431890906323
0
SPLINE
5
112
100
AcDbEntity
8
0
100
AcDbSpline
70
0
71
3
72
16
73
12
74
0
42
0.000000001
43
0.0000000001
44
0.0000000001
40
0
40
0
40
0
40
0
40
0.10156903938460198
40
0.10156903938460198
40
0.20830131945666405
40
0.20830131945666405
40
0.32019561544337355
40
0.32019561544337355
40
0.41268004571915873
40
0.41268004571915873
40
0.50835302735426602
40
0.50835302735426602
40
0.50835302735426602
40
0.50835302735426602
10
-28.932930356826535
20
-1.6770561094254457
30
0
10
-29.187420274650098
20
-1.4537623538063069
30
0
10
-29.394721282702179
20
-1.1818146425205964
30
0
10
-29.704261533605106
20
-0.55943341370425248
30
0
10
-29.797587155917938
20
-0.21203606432013045
30
0
10
-29.850419119284769
20
0.51638188141224217
30
0
10
-29.802798351953346
20
0.89086123864520028
30
0
10
-29.589922057866534
20
1.5402834394937166
30
0
10
-29.447871415305311
20
1.8171555340711776
30
0
10
-29.079062297452509
20
2.3272861457028005
30
0
10
-28.851870141387238
20
2.5555584741573192
30
0
10
-28.594229414983459
20
2.7457344406535622
30
0
0
ARC
5
113
100
AcDbEntity
8
0
100
AcDbCircle
10
-27.000000014486496
20
1.1102230246251565e-15
30
0
40
3.175000000000006
210
0
220
-0
230
1
100
AcDbArc
50
59.859675909571955
51
120.14032409041133
0
SPLINE
5
114
100
AcDbEntity
8
0
100
AcDbSpline
70
0
71
3
72
16
73
12
74
0
42
0.000000001
43
0.0000000001
44
0.0000000001
40
0
40
0
40
0
40
0
40
0.12077812750911897
40
0.12077812750911897
40
0.23637842365178408
40
0.23637842365178408
40
0.34679985359373505
40
0.34679985359373505
40
0.43031236308808007
40
0.43031236308808007
40
0.51066272838635385
40
0.51066272838635385
40
0.51066272838635385
40
0.51066272838635385
10
-16.405770851762018
20
-15.254265559347047
30
0
10
-16.081861901979323
20
-15.493357019930869
30
0
10
-15.80673116679915
20
-15.792181780801062
30
0
10
-15.398432262977028
20
-16.465203905002689
30
0
10
-15.2635379895036
20
-16.829438767269483
30
0
10
-15.146961571510754
20
-17.572308407148402
30
0
10
-15.15984911373382
20
-17.942727980636121
30
0
10
-15.309314132949584
20
-18.569702298728153
30
0
10
-15.414179505144993
20
-18.82839347884503
30
0
10
-15.69501311490143
20
-19.294661578939117
30
0
10
-15.866557661608383
20
-19.501123273437436
30
0
10
-16.06706990992063
20
-19.677056109426193
30
0
0
ARC
5
115
100
AcDbEntity
8
0
100
AcDbCircle
10
-18.000000252260023
20
-18.000000000000007
30
0
40
2.5590499999999938
210
0
220
0
230
1
100
AcDbArc
50
220.94568109091458
51
319.05431890905817
0
SPLINE
5
116
100
AcDbEntity
8
0
100
AcDbSpline
70
0
71
3
72
16
73
12
74
0
42
0.000000001
43
0.0000000001
44
0.0000000001
40
0
40
0
40
0
40
0
40
0.10156903938460053
40
0.10156903938460053
40
0.20830131945665722
40
0.20830131945665722
40
0.32019561544336339
40
0.32019561544336339
40
0.41268004571914835
40
0.41268004571914835
40
0.50835302735425136
40
0.50835302735425136
40
0.50835302735425136
40
0.50835302735425136
10
-19.932930594600219
20
-19.677056109425273
30
0
10
-20.187420512423753
20
-19.453762353806113
30
0
10
-20.394721520475812
20
-19.181814642520393
30
0
10
-20.70426177137869
20
-18.55943341370401
30
0
10
-20.79758739369149
20
-18.212036064319882
30
0
10
-20.85041935705825
20
-17.48361811858749
30
0
10
-20.802798589726784
20
-17.109138761354526
30
0
10
-20.589922295639916
20
-16.459716560506049
30
0
10
-20.447871653078671
20
-16.1828444659286
30
0
10
-20.079062535225823
20
-15.672713854297012
30
0
10
-19.851870379160534
20
-15.444441525842514
30
0
10
-19.594229652756734
20
-15.254265559346292
30
0
0
ARC
5
117
100
AcDbEntity
8
0
100
AcDbCircle
10
-18.000000252260023
20
-18.000000000000007
30
0
40
3.1750000000000078
210
0
220
-0
230
1
100
AcDbArc
50
59.85967590956686
51
120.14032409040612
0
SPLINE
5
118
100
AcDbEntity
8
0
100
AcDbSpline
70
0
71
3
72
16
73
12
74
0
42
0.000000001
43
0.0000000001
44
0.0000000001
40
0
40
0
40
0
40
0
40
0.12077812750911784
40
0.12077812750911784
40
0.23637842365178102
40
0.23637842365178102
40
0.34679985359372967
40
0.34679985359372967
40
0.43031236308807591
40
0.43031236308807591
40
0.51066272838635163
40
0.51066272838635163
40
0.51066272838635163
40
0.51066272838635163
10
-25.405770583541162
20
-15.25426555934704
30
0
10
-25.081861633758468
20
-15.49335701993086
30
0
10
-24.806730898578291
20
-15.792181780801055
30
0
10
-24.398431994756162
20
-16.465203905002689
30
0
10
-24.263537721282734
20
-16.829438767269483
30
0
10
-24.146961303289892
20
-17.572308407148402
30
0
10
-24.159848845512958
20
-17.942727980636121
30
0
10
-24.309313864728725
20
-18.56970229872816
30
0
10
-24.414179236924131
20
-18.828393478845033
30
0
10
-24.695012846680569
20
-19.294661578939113
30
0
10
-24.866557393387517
20
-19.501123273437432
30
0
10
-25.06706964169976
20
-19.677056109426189
30
0
0
ARC
5
119
100
AcDbEntity
8
0
100
AcDbCircle
10
-26.99999998403916
20
-17.999999999999989
30
0
40
2.5590500000000054
210
0
220
0
230
1
100
AcDbArc
50
220.94568109091486
51
319.05431890905811
0
SPLINE
5
120
100
AcDbEntity
8
0
100
AcDbSpline
70
0
71
3
72
16
73
12
74
0
42
0.000000001
43
0.0000000001
44
0.0000000001
40
0
40
0
40
0
40
0
40
0.10156903938460206
40
0.10156903938460206
40
0.20830131945666308
40
0.20830131945666308
40
0.32019561544337155
40
0.32019561544337155
40
0.41268004571915751
40
0.41268004571915751
40
0.50835302735426846
40
0.50835302735426846
40
0.50835302735426846
40
0.50835302735426846
10
-28.932930326379353
20
-19.677056109425273
30
0
10
-29.187420244202894
20
-19.453762353806109
30
0
10
-29.394721252254953
20
-19.181814642520379
30
0
10
-29.704261503157827
20
-18.559433413704006
30
0
10
-29.797587125470628
20
-18.212036064319879
30
0
10
-29.850419088837388
20
-17.483618118587497
30
0
10
-29.802798321505929
20
-17.10913876135454
30
0
10
-29.589922027419057
20
-16.459716560506045
30
0
10
-29.447871384857805
20
-16.182844465928596
30
0
10
-29.079062267004957
20
-15.672713854297005
30
0
10
-28.851870110939654
20
-15.444441525842507
30
0
10
-28.594229384535868
20
-15.254265559346292
30
0
0
ARC
5
121
100
AcDbEntity
8
0
100
AcDbCircle
10
-26.99999998403916
20
-17.999999999999989
30
0
40
3.1749999999999963
210
0
220
-0
230
1
100
AcDbArc
50
59.859675909566889
51
120.14032409040617
0
SPLINE
5
122
100
AcDbEntity
8
0
100
AcDbSpline
70
0
71
3
72
16
73
12
74
0
42
0.000000001
43
0.0000000001
44
0.0000000001
40
0
40
0
40
0
40
0
40
0.12077812750911922
40
0.12077812750911922
40
0.23637842365178297
40
0.23637842365178297
40
0.34679985359373044
40
0.34679985359373044
40
0.43031236308807386
40
0.43031236308807386
40
0.51066272838631277
40
0.51066272838631277
40
0.51066272838631277
40
0.51066272838631277
10
-7.4057705835413881
20
-15.254265559346909
30
0
10
-7.0818616337586722
20
-15.493357019930706
30
0
10
-6.806730898578472
20
-15.792181780800876
30
0
10
-6.3984319947562955
20
-16.465203905002468
30
0
10
-6.2635377212828338
20
-16.829438767269252
30
0
10
-6.1469613032899284
20
-17.572308407148157
30
0
10
-6.1598488455129594
20
-17.94272798063588
30
0
10
-6.3093138647286739
20
-18.569702298727936
30
0
10
-6.4141792369240598
20
-18.828393478844813
30
0
10
-6.6950128466803953
20
-19.294661578938818
30
0
10
-6.866557393387394
20
-19.501123273437333
30
0
10
-7.0670696416997725
20
-19.6770561094262
30
0
0
ARC
5
123
100
AcDbEntity
8
0
100
AcDbCircle
10
-8.9999999840391585
20
-17.999999999999993
30
0
40
2.5590500000000032
210
0
220
0
230
1
100
AcDbArc
50
220.94568109091986
51
319.05431890905771
0
SPLINE
5
124
100
AcDbEntity
8
0
100
AcDbSpline
70
0
71
3
72
16
73
12
74
0
42
0.000000001
43
0.0000000001
44
0.0000000001
40
0
40
0
40
0
40
0
40
0.10156903938460154
40
0.10156903938460154
40
0.20830131945666119
40
0.20830131945666119
40
0.32019561544336722
40
0.32019561544336722
40
0.4126800457191524
40
0.4126800457191524
40
0.50835302735431642
40
0.50835302735431642
40
0.50835302735431642
40
0.50835302735431642
10
-10.9329303263792
20
-19.677056109425447
30
0
10
-11.187420244202759
20
-19.453762353806308
30
0
10
-11.39472125225484
20
-19.1818146425206
30
0
10
-11.70426150315777
20
-18.559433413704255
30
0
10
-11.797587125470603
20
-18.212036064320138
30
0
10
-11.850419088837434
20
-17.483618118587753
30
0
10
-11.802798321506005
20
-17.109138761354792
30
0
10
-11.589922027419192
20
-16.45971656050628
30
0
10
-11.447871384857963
20
-16.182844465928813
30
0
10
-11.079062267005064
20
-15.672713854297056
30
0
10
-10.851870110939601
20
-15.444441525842464
30
0
10
-10.594229384535879
20
-15.254265559346297
30
0
0
ARC
5
125
100
AcDbEntity
8
0
100
AcDbCircle
10
-8.9999999840391585
20
-17.999999999999993
30
0
40
3.1749999999999985
210
0
220
-0
230
1
100
AcDbArc
50
59.859675909571656
51
120.14032409040642
0
SPLINE
5
126
100
AcDbEntity
8
0
100
AcDbSpline
70
0
71
3
72
16
73
12
74
0
42
0.000000001
43
0.0000000001
44
0.0000000001
40
0
40
0
40
0
40
0
40
0.12077812750911866
40
0.12077812750911866
40
0.23637842365178324
40
0.23637842365178324
40
0.34679985359373233
40
0.34679985359373233
40
0.43031236308807497
40
0.43031236308807497
40
0.51066272838631199
40
0.51066272838631199
40
0.51066272838631199
40
0.51066272838631199
10
-7.4057708517625018
20
20.745734440653237
30
0
10
-7.0818619019797655
20
20.506642980069472
30
0
10
-6.8067311667995387
20
20.207818219199325
30
0
10
-6.3984322629772974
20
19.534796094997766
30
0
10
-6.2635379895038046
20
19.170561232730996
30
0
10
-6.1469615715108317
20
18.427691592852106
30
0
10
-6.1598491137338298
20
18.05727201936438
30
0
10
-6.3093141329494848
20
17.430297701272323
30
0
10
-6.4141795051448458
20
17.171606521155425
30
0
10
-6.6950131149011396
20
16.705338421061391
30
0
10
-6.8665576616081196
20
16.498876726562862
30
0
10
-7.0670699099204812
20
16.322943890573974
30
0
0
ARC
5
127
100
AcDbEntity
8
0
100
AcDbCircle
10
-9.0000002522600209
20
18
30
0
40
2.5590499999999974
210
0
220
0
230
1
100
AcDbArc
50
220.94568109092492
51
319.05431890906306
0
SPLINE
5
128
100
AcDbEntity
8
0
100
AcDbSpline
70
0
71
3
72
16
73
12
74
0
42
0.000000001
43
0.0000000001
44
0.0000000001
40
0
40
0
40
0
40
0
40
0.10156903938460209
40
0.10156903938460209
40
0.20830131945666314
40
0.20830131945666314
40
0.32019561544337055
40
0.32019561544337055
40
0.41268004571915784
40
0.41268004571915784
40
0.50835302735432208
40
0.50835302735432208
40
0.50835302735432208
40
0.50835302735432208
10
-10.932930594599913
20
16.322943890574379
30
0
10
-11.187420512423493
20
16.546237646193497
30
0
10
-11.394721520475599
20
16.818185357479187
30
0
10
-11.704261771378583
20
17.4405665862955
30
0
10
-11.797587393691447
20
17.787963935679606
30
0
10
-11.850419357058344
20
18.516381881411991
30
0
10
-11.802798589726944
20
18.890861238644959
30
0
10
-11.589922295640193
20
19.540283439493482
30
0
10
-11.447871653078996
20
19.817155534070956
30
0
10
-11.079062535226136
20
20.327286145702757
30
0
10
-10.85187037916069
20
20.555558474157365
30
0
10
-10.594229652756983
20
20.74573444065356
30
0
0
ARC
5
129
100
AcDbEntity
8
0
100
AcDbCircle
10
-9.0000002522600209
20
18
30
0
40
3.1750000000000043
210
0
220
-0
230
1
100
AcDbArc
50
59.859675909576971
51
120.14032409041144
0
CIRCLE
5
130
100
AcDbEntity
8
0
100
AcDbCircle
10
-27.000000252260023
20
18
30
0
40
12.499999999999998
210
-0
220
0
230
1
0
SPLINE
5
131
100
AcDbEntity
8
0
100
AcDbSpline
70
0
71
3
72
16
73
12
74
0
42
0.000000001
43
0.0000000001
44
0.0000000001
40
0
40
0
40
0
40
0
40
0.12077812750911869
40
0.12077812750911869
40
0.23637842365178111
40
0.23637842365178111
40
0.34679985359373011
40
0.34679985359373011
40
0.43031236308807258
40
0.43031236308807258
40
0.51066272838634474
40
0.51066272838634474
40
0.51066272838634474
40
0.51066272838634474
10
10.594229384537158
20
-15.254265559347047
30
0
10
10.918138334319851
20
-15.493357019930867
30
0
10
11.193269069500026
20
-15.792181780801062
30
0
10
11.601567973322144
20
-16.465203905002689
30
0
10
11.736462246795579
20
-16.829438767269483
30
0
10
11.853038664788421
20
-17.572308407148409
30
0
10
11.840151122565354
20
-17.942727980636125
30
0
10
11.69068610334959
20
-18.569702298728149
30
0
10
11.585820731154184
20
-18.828393478845026
30
0
10
11.304987121397748
20
-19.294661578939117
30
0
10
11.133442574690795
20
-19.501123273437436
30
0
10
10.932930326378546
20
-19.677056109426193
30
0
0
ARC
5
132
100
AcDbEntity
8
0
100
AcDbCircle
10
8.9999999840391567
20
-17.999999999999996
30
0
40
2.5590500000000018
210
0
220
0
230
1
100
AcDbArc
50
220.94568109091483
51
319.054318909058
0
SPLINE
5
133
100
AcDbEntity
8
0
100
AcDbSpline
70
0
71
3
72
16
73
12
74
0
42
0.000000001
43
0.0000000001
44
0.0000000001
40
0
40
0
40
0
40
0
40
0.10156903938460252
40
0.10156903938460252
40
0.20830131945666469
40
0.20830131945666469
40
0.32019561544337238
40
0.32019561544337238
40
0.41268004571915845
40
0.41268004571915845
40
0.50835302735426668
40
0.50835302735426668
40
0.50835302735426668
40
0.50835302735426668
10
7.0670696416989642
20
-19.677056109425273
30
0
10
6.8125797238754231
20
-19.453762353806109
30
0
10
6.6052787158233661
20
-19.181814642520379
30
0
10
6.2957384649204959
20
-18.559433413704014
30
0
10
6.2024128426076945
20
-18.212036064319889
30
0
10
6.1495808792409292
20
-17.483618118587497
30
0
10
6.1972016465723936
20
-17.10913876135454
30
0
10
6.410077940659261
20
-16.459716560506052
30
0
10
6.552128583220509
20
-16.182844465928603
30
0
10
6.9209377010733553
20
-15.672713854297015
30
0
10
7.1481298571386489
20
-15.444441525842517
30
0
10
7.4057705835424459
20
-15.254265559346296
30
0
0
ARC
5
134
100
AcDbEntity
8
0
100
AcDbCircle
10
8.9999999840391567
20
-17.999999999999996
30
0
40
3.1749999999999967
210
0
220
-0
230
1
100
AcDbArc
50
59.859675909566825
51
120.14032409040621
0
SPLINE
5
135
100
AcDbEntity
8
0
100
AcDbSpline
70
0
71
3
72
16
73
12
74
0
42
0.000000001
43
0.0000000001
44
0.0000000001
40
0
40
0
40
0
40
0
40
0.12077812750912205
40
0.12077812750912205
40
0.23637842365178791
40
0.23637842365178791
40
0.34679985359373805
40
0.34679985359373805
40
0.43031236308808729
40
0.43031236308808729
40
0.51066272838636184
40
0.51066272838636184
40
0.51066272838636184
40
0.51066272838636184
10
28.594229802829357
20
-15.254265559347042
30
0
10
28.918138752612059
20
-15.493357019930869
30
0
10
29.193269487792225
20
-15.792181780801062
30
0
10
29.601568391614336
20
-16.465203905002674
30
0
10
29.736462665087778
20
-16.829438767269473
30
0
10
29.85303908308062
20
-17.572308407148402
30
0
10
29.840151540857555
20
-17.942727980636121
30
0
10
29.690686521641787
20
-18.569702298728163
30
0
10
29.585821149446375
20
-18.828393478845033
30
0
10
29.304987539689954
20
-19.294661578939099
30
0
10
29.133442992983003
20
-19.501123273437432
30
0
10
28.932930744670745
20
-19.677056109426193
30
0
0
ARC
5
136
100
AcDbEntity
8
0
100
AcDbCircle
10
27.000000402331352
20
-17.999999999999989
30
0
40
2.5590500000000072
210
0
220
0
230
1
100
AcDbArc
50
220.94568109091492
51
319.05431890905788
0
SPLINE
5
137
100
AcDbEntity
8
0
100
AcDbSpline
70
0
71
3
72
16
73
12
74
0
42
0.000000001
43
0.0000000001
44
0.0000000001
40
0
40
0
40
0
40
0
40
0.10156903938460157
40
0.10156903938460157
40
0.20830131945666197
40
0.20830131945666197
40
0.32019561544337166
40
0.32019561544337166
40
0.41268004571916045
40
0.41268004571916045
40
0.50835302735427312
40
0.50835302735427312
40
0.50835302735427312
40
0.50835302735427312
10
25.06707005999116
20
-19.677056109425273
30
0
10
24.812580142167619
20
-19.453762353806113
30
0
10
24.605279134115563
20
-19.181814642520386
30
0
10
24.295738883212685
20
-18.55943341370401
30
0
10
24.202413260899888
20
-18.212036064319879
30
0
10
24.149581297533125
20
-17.483618118587497
30
0
10
24.197202064864591
20
-17.10913876135454
30
0
10
24.410078358951456
20
-16.459716560506045
30
0
10
24.552129001512707
20
-16.182844465928596
30
0
10
24.920938119365552
20
-15.672713854297015
30
0
10
25.148130275430841
20
-15.444441525842517
30
0
10
25.405771001834641
20
-15.254265559346294
30
0
0
ARC
5
138
100
AcDbEntity
8
0
100
AcDbCircle
10
27.000000402331352
20
-17.999999999999989
30
0
40
3.1749999999999967
210
0
220
-0
230
1
100
AcDbArc
50
59.859675909566761
51
120.14032409040624
0
SPLINE
5
139
100
AcDbEntity
8
0
100
AcDbSpline
70
0
71
3
72
16
73
12
74
0
42
0.000000001
43
0.0000000001
44
0.0000000001
40
0
40
0
40
0
40
0
40
0.1207781275091217
40
0.1207781275091217
40
0.23637842365178888
40
0.23637842365178888
40
0.34679985359373972
40
0.34679985359373972
40
0.43031236308808246
40
0.43031236308808246
40
0.51066272838635784
40
0.51066272838635784
40
0.51066272838635784
40
0.51066272838635784
10
19.594229652758028
20
2.7457344406529582
30
0
10
19.918138602540733
20
2.5066429800691314
30
0
10
20.193269337720899
20
2.2078182191989368
30
0
10
20.601568241543017
20
1.5347960949973123
30
0
10
20.736462515016449
20
1.1705612327305179
30
0
10
20.853038933009294
20
0.42769159285160141
30
0
10
20.840151390786229
20
0.057272019363880655
30
0
10
20.690686371570465
20
-0.5697022987281497
30
0
10
20.585820999375059
20
-0.82839347884502668
30
0
10
20.304987389618617
20
-1.2946615789391256
30
0
10
20.133442842911663
20
-1.5011232734374402
30
0
10
19.932930594599419
20
-1.6770561094261929
30
0
0
ARC
5
140
100
AcDbEntity
8
0
100
AcDbCircle
10
18.000000252260023
20
2.2204460492503131e-15
30
0
40
2.5590500000000018
210
0
220
0
230
1
100
AcDbArc
50
220.94568109091483
51
319.05431890905811
0
SPLINE
5
141
100
AcDbEntity
8
0
100
AcDbSpline
70
0
71
3
72
16
73
12
74
0
42
0.000000001
43
0.0000000001
44
0.0000000001
40
0
40
0
40
0
40
0
40
0.10156903938460043
40
0.10156903938460043
40
0.2083013194566577
40
0.2083013194566577
40
0.32019561544336406
40
0.32019561544336406
40
0.41268004571914835
40
0.41268004571914835
40
0.50835302735425725
40
0.50835302735425725
40
0.50835302735425725
40
0.50835302735425725
10
16.067069909919834
20
-1.6770561094252741
30
0
10
15.812579992096296
20
-1.4537623538061153
30
0
10
15.605278984044237
20
-1.1818146425203937
30
0
10
15.295738733141357
20
-0.55943341370400868
30
0
10
15.202413110828561
20
-0.21203606431987526
30
0
10
15.149581147461795
20
0.51638188141249775
30
0
10
15.197201914793254
20
0.89086123864545264
30
0
10
15.410078208880126
20
1.540283439493952
30
0
10
15.552128851441381
20
1.8171555340714032
30
0
10
15.92093796929422
20
2.3272861457029852
30
0
10
16.148130125359515
20
2.5555584741574839
30
0
10
16.405770851763315
20
2.7457344406537065
30
0
0
ARC
5
142
100
AcDbEntity
8
0
100
AcDbCircle
10
18.000000252260023
20
2.2204460492503131e-15
30
0
40
3.1750000000000038
210
0
220
-0
230
1
100
AcDbArc
50
59.859675909566839
51
120.14032409040614
0
SPLINE
5
143
100
AcDbEntity
8
0
100
AcDbSpline
70
0
71
3
72
16
73
12
74
0
42
0.000000001
43
0.0000000001
44
0.0000000001
40
0
40
0
40
0
40
0
40
0.12077812750911872
40
0.12077812750911872
40
0.2363784236517828
40
0.2363784236517828
40
0.34679985359373244
40
0.34679985359373244
40
0.43031236308807752
40
0.43031236308807752
40
0.51066272838634985
40
0.51066272838634985
40
0.51066272838634985
40
0.51066272838634985
10
10.594229652757782
20
20.745734440653088
30
0
10
10.918138602540497
20
20.506642980069294
30
0
10
11.1932693377207
20
20.207818219199126
30
0
10
11.601568241542882
20
19.534796094997532
30
0
10
11.736462515016342
20
19.170561232730751
30
0
10
11.85303893300925
20
18.427691592851843
30
0
10
11.840151390786218
20
18.057272019364127
30
0
10
11.690686371570507
20
17.430297701272075
30
0
10
11.585820999375123
20
17.171606521155194
30
0
10
11.304987389618734
20
16.705338421061093
30
0
10
11.133442842911801
20
16.498876726562749
30
0
10
10.932930594599563
20
16.322943890573974
30
0
0
ARC
5
144
100
AcDbEntity
8
0
100
AcDbCircle
10
9.0000002522600209
20
18
30
0
40
2.55905
210
0
220
0
230
1
100
AcDbArc
50
220.94568109092009
51
319.05431890906306
0
SPLINE
5
145
100
AcDbEntity
8
0
100
AcDbSpline
70
0
71
3
72
16
73
12
74
0
42
0.000000001
43
0.0000000001
44
0.0000000001
40
0
40
0
40
0
40
0
40
0.10156903938460171
40
0.10156903938460171
40
0.20830131945666094
40
0.20830131945666094
40
0.32019561544336494
40
0.32019561544336494
40
0.41268004571914729
40
0.41268004571914729
40
0.50835302735425247
40
0.50835302735425247
40
0.50835302735425247
40
0.50835302735425247
10
7.0670699099199883
20
16.322943890574543
30
0
10
6.8125799920964276
20
16.546237646193681
30
0
10
6.6052789840443458
20
16.818185357479386
30
0
10
6.2957387331414143
20
17.440566586295731
30
0
10
6.20241311082858
20
17.787963935679841
30
0
10
6.1495811474617472
20
18.516381881412226
30
0
10
6.1972019147931725
20
18.890861238645186
30
0
10
6.4100782088799821
20
19.540283439493702
30
0
10
6.5521288514412079
20
19.817155534071166
30
0
10
6.9209379692940018
20
20.327286145702782
30
0
10
7.1481301253592715
20
20.555558474157301
30
0
10
7.4057708517630507
20
20.745734440653546
30
0
0
ARC
5
146
100
AcDbEntity
8
0
100
AcDbCircle
10
9.0000002522600209
20
18
30
0
40
3.1749999999999998
210
0
220
-0
230
1
100
AcDbArc
50
59.859675909571827
51
120.1403240904117
0
SPLINE
5
147
100
AcDbEntity
8
0
100
AcDbSpline
70
0
71
3
72
16
73
12
74
0
42
0.000000001
43
0.0000000001
44
0.0000000001
40
0
40
0
40
0
40
0
40
0.12077812750912294
40
0.12077812750912294
40
0.23637842365178685
40
0.23637842365178685
40
0.34679985359373411
40
0.34679985359373411
40
0.43031236308807663
40
0.43031236308807663
40
0.51066272838634585
40
0.51066272838634585
40
0.51066272838634585
40
0.51066272838634585
10
28.594229668718899
20
20.745734708873862
30
0
10
28.918138618501604
20
20.506643248290032
30
0
10
29.193269353681771
20
20.207818487419836
30
0
10
29.601568257503882
20
19.534796363218231
30
0
10
29.736462530977327
20
19.170561500951429
30
0
10
29.85303894897017
20
18.427691861072496
30
0
10
29.840151406747104
20
18.05727228758478
30
0
10
29.69068638753134
20
17.430297969492749
30
0
10
29.585821015335934
20
17.171606789375872
30
0
10
29.304987405579503
20
16.705338689281795
30
0
10
29.133442858872552
20
16.498876994783465
30
0
10
28.932930610560298
20
16.322944158794709
30
0
0
ARC
5
148
100
AcDbEntity
8
0
100
AcDbCircle
10
27.000000268220901
20
18.000000268220901
30
0
40
2.5590499999999992
210
0
220
0
230
1
100
AcDbArc
50
220.94568109091486
51
319.05431890905811
0
SPLINE
5
149
100
AcDbEntity
8
0
100
AcDbSpline
70
0
71
3
72
16
73
12
74
0
42
0.000000001
43
0.0000000001
44
0.0000000001
40
0
40
0
40
0
40
0
40
0.10156903938460275
40
0.10156903938460275
40
0.20830131945666544
40
0.20830131945666544
40
0.32019561544337161
40
0.32019561544337161
40
0.41268004571915462
40
0.41268004571915462
40
0.50835302735426158
40
0.50835302735426158
40
0.50835302735426158
40
0.50835302735426158
10
25.067069925880713
20
16.322944158795622
30
0
10
24.812580008057168
20
16.546237914414785
30
0
10
24.605279000005112
20
16.818185625700519
30
0
10
24.295738749102242
20
17.440566854516881
30
0
10
24.202413126789438
20
17.787964203901005
30
0
10
24.149581163422674
20
18.516382149633394
30
0
10
24.19720193075413
20
18.890861506866344
30
0
10
24.410078224840998
20
19.540283707714849
30
0
10
24.552128867402256
20
19.817155802292305
30
0
10
24.920937985255094
20
20.327286413923883
30
0
10
25.148130141320383
20
20.555558742378381
30
0
10
25.405770867724186
20
20.745734708874608
30
0
0
ARC
5
150
100
AcDbEntity
8
0
100
AcDbCircle
10
27.000000268220901
20
18.000000268220901
30
0
40
3.1750000000000038
210
0
220
-0
230
1
100
AcDbArc
50
59.859675909566988
51
120.1403240904062
0
SPLINE
5
151
100
AcDbEntity
8
0
100
AcDbSpline
70
0
71
3
72
16
73
12
74
0
42
0.000000001
43
0.0000000001
44
0.0000000001
40
0
40
0
40
0
40
0
40
0.12077812750912205
40
0.12077812750912205
40
0.23637842365178791
40
0.23637842365178791
40
0.34679985359373805
40
0.34679985359373805
40
0.43031236308808729
40
0.43031236308808729
40
0.51066272838636184
40
0.51066272838636184
40
0.51066272838636184
40
0.51066272838636184
10
19.594229652758024
20
-15.254265559347042
30
0
10
19.918138602540726
20
-15.493357019930869
30
0
10
20.193269337720892
20
-15.792181780801062
30
0
10
20.601568241543006
20
-16.465203905002674
30
0
10
20.736462515016445
20
-16.829438767269473
30
0
10
20.853038933009287
20
-17.572308407148402
30
0
10
20.840151390786225
20
-17.942727980636121
30
0
10
20.690686371570454
20
-18.569702298728163
30
0
10
20.585820999375045
20
-18.828393478845033
30
0
10
20.304987389618621
20
-19.294661578939099
30
0
10
20.13344284291167
20
-19.501123273437432
30
0
10
19.932930594599412
20
-19.677056109426193
30
0
0
ARC
5
152
100
AcDbEntity
8
0
100
AcDbCircle
10
18.000000252260019
20
-18.000000000000007
30
0
40
2.5590499999999956
210
0
220
0
230
1
100
AcDbArc
50
220.94568109091463
51
319.05431890905817
0
SPLINE
5
153
100
AcDbEntity
8
0
100
AcDbSpline
70
0
71
3
72
16
73
12
74
0
42
0.000000001
43
0.0000000001
44
0.0000000001
40
0
40
0
40
0
40
0
40
0.10156903938460157
40
0.10156903938460157
40
0.20830131945666197
40
0.20830131945666197
40
0.32019561544337166
40
0.32019561544337166
40
0.41268004571915851
40
0.41268004571915851
40
0.50835302735426702
40
0.50835302735426702
40
0.50835302735426702
40
0.50835302735426702
10
16.067069909919827
20
-19.677056109425273
30
0
10
15.812579992096287
20
-19.453762353806113
30
0
10
15.605278984044231
20
-19.181814642520386
30
0
10
15.295738733141352
20
-18.55943341370401
30
0
10
15.202413110828557
20
-18.212036064319879
30
0
10
15.14958114746179
20
-17.483618118587497
30
0
10
15.197201914793254
20
-17.10913876135454
30
0
10
15.410078208880122
20
-16.459716560506052
30
0
10
15.552128851441367
20
-16.182844465928603
30
0
10
15.920937969294219
20
-15.672713854297012
30
0
10
16.148130125359515
20
-15.444441525842512
30
0
10
16.405770851763307
20
-15.254265559346294
30
0
0
ARC
5
154
100
AcDbEntity
8
0
100
AcDbCircle
10
18.000000252260019
20
-18.000000000000007
30
0
40
3.1750000000000118
210
0
220
-0
230
1
100
AcDbArc
50
59.859675909566917
51
120.14032409040614
0
SPLINE
5
155
100
AcDbEntity
8
0
100
AcDbSpline
70
0
71
3
72
16
73
12
74
0
42
0.000000001
43
0.0000000001
44
0.0000000001
40
0
40
0
40
0
40
0
40
0.12077812750912249
40
0.12077812750912249
40
0.23637842365178874
40
0.23637842365178874
40
0.34679985359374033
40
0.34679985359374033
40
0.43031236308808352
40
0.43031236308808352
40
0.51066272838635818
40
0.51066272838635818
40
0.51066272838635818
40
0.51066272838635818
10
28.594229802829357
20
2.745734440652956
30
0
10
28.918138752612062
20
2.5066429800691274
30
0
10
29.193269487792225
20
2.2078182191989355
30
0
10
29.601568391614336
20
1.5347960949973243
30
0
10
29.736462665087778
20
1.1705612327305266
30
0
10
29.85303908308062
20
0.42769159285159453
30
0
10
29.840151540857555
20
0.057272019363879025
30
0
10
29.690686521641791
20
-0.56970229872814215
30
0
10
29.585821149446389
20
-0.82839347884502446
30
0
10
29.304987539689943
20
-1.2946615789391274
30
0
10
29.133442992982989
20
-1.5011232734374418
30
0
10
28.932930744670745
20
-1.6770561094261947
30
0
0
ARC
5
156
100
AcDbEntity
8
0
100
AcDbCircle
10
27.000000402331352
20
-6.3837823915946501e-15
30
0
40
2.5590499999999943
210
0
220
0
230
1
100
AcDbArc
50
220.94568109091472
51
319.05431890905817
0
SPLINE
5
157
100
AcDbEntity
8
0
100
AcDbSpline
70
0
71
3
72
16
73
12
74
0
42
0.000000001
43
0.0000000001
44
0.0000000001
40
0
40
0
40
0
40
0
40
0.10156903938460179
40
0.10156903938460179
40
0.20830131945666386
40
0.20830131945666386
40
0.32019561544337727
40
0.32019561544337727
40
0.41268004571916661
40
0.41268004571916661
40
0.50835302735427501
40
0.50835302735427501
40
0.50835302735427501
40
0.50835302735427501
10
25.06707005999116
20
-1.6770561094252765
30
0
10
24.812580142167619
20
-1.4537623538061151
30
0
10
24.605279134115563
20
-1.181814642520387
30
0
10
24.295738883212685
20
-0.5594334137040109
30
0
10
24.202413260899888
20
-0.21203606431987682
30
0
10
24.149581297533125
20
0.5163818814125013
30
0
10
24.197202064864591
20
0.89086123864546174
30
0
10
24.410078358951456
20
1.5402834394939373
30
0
10
24.552129001512689
20
1.817155534071381
30
0
10
24.920938119365552
20
2.3272861457029883
30
0
10
25.148130275430848
20
2.5555584741574884
30
0
10
25.405771001834641
20
2.7457344406537043
30
0
0
ARC
5
158
100
AcDbEntity
8
0
100
AcDbCircle
10
27.000000402331352
20
-6.3837823915946501e-15
30
0
40
3.17500000000001
210
0
220
-0
230
1
100
AcDbArc
50
59.859675909566889
51
120.14032409040608
0
SPLINE
5
159
100
AcDbEntity
8
0
100
AcDbSpline
70
0
71
3
72
16
73
12
74
0
42
0.000000001
43
0.0000000001
44
0.0000000001
40
0
40
0
40
0
40
0
40
0.1207781275091214
40
0.1207781275091214
40
0.23637842365178863
40
0.23637842365178863
40
0.34679985359373916
40
0.34679985359373916
40
0.43031236308808513
40
0.43031236308808513
40
0.51066272838636251
40
0.51066272838636251
40
0.51066272838636251
40
0.51066272838636251
10
10.59422941645888
20
2.7457344406529542
30
0
10
10.918138366241582
20
2.5066429800691283
30
0
10
11.193269101421748
20
2.2078182191989359
30
0
10
11.601568005243866
20
1.5347960949973172
30
0
10
11.736462278717299
20
1.1705612327305226
30
0
10
11.853038696710144
20
0.42769159285160624
30
0
10
11.84015115448708
20
0.057272019363885755
30
0
10
11.690686135271314
20
-0.56970229872815514
30
0
10
11.585820763075905
20
-0.82839347884502812
30
0
10
11.304987153319468
20
-1.2946615789391183
30
0
10
11.133442606612515
20
-1.5011232734374367
30
0
10
10.93293035830027
20
-1.6770561094261911
30
0
0
ARC
5
160
100
AcDbEntity
8
0
100
AcDbCircle
10
9.0000000159608771
20
3.3306690738754696e-15
30
0
40
2.5590500000000005
210
0
220
0
230
1
100
AcDbArc
50
220.94568109091483
51
319.054318909058
0
SPLINE
5
161
100
AcDbEntity
8
0
100
AcDbSpline
70
0
71
3
72
16
73
12
74
0
42
0.000000001
43
0.0000000001
44
0.0000000001
40
0
40
0
40
0
40
0
40
0.1015690393846016
40
0.1015690393846016
40
0.20830131945666114
40
0.20830131945666114
40
0.32019561544336622
40
0.32019561544336622
40
0.41268004571914996
40
0.41268004571914996
40
0.50835302735425703
40
0.50835302735425703
40
0.50835302735425703
40
0.50835302735425703
10
7.0670696736206882
20
-1.6770561094252721
30
0
10
6.8125797557971488
20
-1.4537623538061109
30
0
10
6.6052787477450927
20
-1.1818146425203837
30
0
10
6.295738496842219
20
-0.55943341370401367
30
0
10
6.2024128745294167
20
-0.21203606431988864
30
0
10
6.1495809111626523
20
0.51638188141249985
30
0
10
6.197201678494114
20
0.89086123864545619
30
0
10
6.4100779725809831
20
1.5402834394939489
30
0
10
6.5521286151422338
20
1.8171555340713985
30
0
10
6.9209377329950765
20
2.3272861457029812
30
0
10
7.1481298890603675
20
2.5555584741574795
30
0
10
7.405770615464168
20
2.7457344406537034
30
0
0
ARC
5
162
100
AcDbEntity
8
0
100
AcDbCircle
10
9.0000000159608771
20
3.3306690738754696e-15
30
0
40
3.1749999999999994
210
0
220
-0
230
1
100
AcDbArc
50
59.859675909566818
51
120.1403240904062
0
SPLINE
5
163
100
AcDbEntity
8
0
100
AcDbSpline
70
0
71
3
72
16
73
12
74
0
42
0.000000001
43
0.0000000001
44
0.0000000001
40
0
40
0
40
0
40
0
40
0.12077812750912294
40
0.12077812750912294
40
0.23637842365178685
40
0.23637842365178685
40
0.34679985359373411
40
0.34679985359373411
40
0.43031236308807663
40
0.43031236308807663
40
0.5106627283863493
40
0.5106627283863493
40
0.5106627283863493
40
0.5106627283863493
10
19.594229668718903
20
20.745734708873862
30
0
10
19.918138618501608
20
20.506643248290032
30
0
10
20.193269353681771
20
20.207818487419836
30
0
10
20.601568257503882
20
19.534796363218231
30
0
10
20.736462530977327
20
19.170561500951429
30
0
10
20.85303894897017
20
18.427691861072496
30
0
10
20.840151406747104
20
18.05727228758478
30
0
10
20.69068638753134
20
17.430297969492749
30
0
10
20.585821015335934
20
17.171606789375872
30
0
10
20.304987405579496
20
16.705338689281785
30
0
10
20.133442858872549
20
16.498876994783465
30
0
10
19.932930610560298
20
16.322944158794709
30
0
0
ARC
5
164
100
AcDbEntity
8
0
100
AcDbCircle
10
18.000000268220901
20
18.000000268220898
30
0
40
2.5590499999999961
210
0
220
0
230
1
100
AcDbArc
50
220.94568109091477
51
319.05431890905817
0
SPLINE
5
165
100
AcDbEntity
8
0
100
AcDbSpline
70
0
71
3
72
16
73
12
74
0
42
0.000000001
43
0.0000000001
44
0.0000000001
40
0
40
0
40
0
40
0
40
0.1015690393846016
40
0.1015690393846016
40
0.20830131945666175
40
0.20830131945666175
40
0.32019561544336866
40
0.32019561544336866
40
0.41268004571915229
40
0.41268004571915229
40
0.50835302735425991
40
0.50835302735425991
40
0.50835302735425991
40
0.50835302735425991
10
16.067069925880713
20
16.322944158795622
30
0
10
15.812580008057173
20
16.546237914414782
30
0
10
15.605279000005115
20
16.818185625700512
30
0
10
15.295738749102236
20
17.440566854516884
30
0
10
15.202413126789438
20
17.787964203901016
30
0
10
15.149581163422672
20
18.516382149633394
30
0
10
15.19720193075413
20
18.890861506866344
30
0
10
15.410078224841001
20
19.540283707714849
30
0
10
15.552128867402255
20
19.817155802292305
30
0
10
15.920937985255094
20
20.327286413923883
30
0
10
16.148130141320383
20
20.555558742378381
30
0
10
16.405770867724186
20
20.745734708874608
30
0
0
ARC
5
166
100
AcDbEntity
8
0
100
AcDbCircle
10
18.000000268220901
20
18.000000268220898
30
0
40
3.1750000000000078
210
0
220
-0
230
1
100
AcDbArc
50
59.859675909566953
51
120.14032409040621
0
LWPOLYLINE
5
167
100
AcDbEntity
8
0
100
AcDbPolyline
90
6
70
1
43
0.0
10
1.1999999999999906
20
-36.406834960552523
10
1.2000000000000011
20
36.406834960552473
10
37.680182006928398
20
36.406834960552466
10
50.279604454504891
20
14.583995135326164
10
50.279604454504891
20
-14.583995135326182
10
37.680182006928362
20
-36.40683496055253
0
CIRCLE
5
168
100
AcDbEntity
8
0
100
AcDbCircle
10
36.000000268220894
20
18.000000027709415
30
0
40
5.0000000000000071
210
0
220
-0
230
1
0
LINE
5
169
100
AcDbEntity
8
0
100
AcDbLine
10
0.80000000000000004
20
36.406834960552523
30
0
11
0.80000000000000004
21
38.165383059186404
31
0
0
LINE
5
170
100
AcDbEntity
8
0
100
AcDbLine
10
0.80000000000000004
20
38.165383059186404
30
0
11
-37.500721014557953
21
38.165383059186397
31
0
0
ELLIPSE
5
171
100
AcDbEntity
8
0
100
AcDbEllipse
10
-37.500721014557953
20
36.406834960552523
30
0
11
-3.3603561995830864
21
-1.2371998954573913
31
0.0
40
0.46763263883233747
41
4.5418898039918911
42
4.8367989072147637
0
LINE
5
172
100
AcDbEntity
8
0
100
AcDbLine
10
-37.680182006928348
20
36.406834960552537
30
0
11
-38.491788505445619
21
37.812578651526891
31
0
0
LINE
5
173
100
AcDbEntity
8
0
100
AcDbLine
10
-37.680182006928348
20
36.406834960552537
30
0
11
0.80000000000000004
21
36.406834960552523
31
0
0
LINE
5
174
100
AcDbEntity
8
0
100
AcDbLine
10
1.2000000000000017
20
38.165383059186347
30
0
11
1.2000000000000013
21
36.406834960552473
31
0
0
LINE
5
175
100
AcDbEntity
8
0
100
AcDbLine
10
1.2000000000000013
20
36.406834960552473
30
0
11
37.680182006928398
21
36.406834960552466
31
0
0
LINE
5
176
100
AcDbEntity
8
0
100
AcDbLine
10
38.491788505348509
20
37.812578651569225
30
0
11
37.680182006928398
21
36.406834960552466
31
0
0
ELLIPSE
5
177
100
AcDbEntity
8
0
100
AcDbEllipse
10
37.500721014558074
20
36.406834960552459
30
0
11
3.3603561995830904
21
-1.2371998954574033
31
0.0
40
0.46763263883233563
41
1.4463863999946331
42
1.741295503187698
0
LINE
5
178
100
AcDbEntity
8
0
100
AcDbLine
10
37.500721014558074
20
38.165383059186333
30
0
11
1.2000000000000017
21
38.165383059186347
31
0
0
LINE
5
179
100
AcDbEntity
8
0
100
AcDbLine
10
1.2000000000000013
20
36.406834960552473
30
0
11
1.0000000000000155
21
36.406834960552473
31
0
0
LINE
5
180
100
AcDbEntity
8
0
100
AcDbLine
10
1.2000000000000017
20
38.165383059186347
30
0
11
1.2000000000000013
21
36.406834960552473
31
0
0
ELLIPSE
5
181
100
AcDbEntity
8
0
100
AcDbEllipse
10
1.2000000000000162
20
37.989528249322959
30
0
11
-0.20000000000000004
21
0
31
0.0
40
0.87927404931696673
41
4.7123889803847616
42
6.2831853071795862
0
LINE
5
182
100
AcDbEntity
8
0
100
AcDbLine
10
1.0000000000000155
20
36.406834960552473
30
0
11
1.0000000000000162
21
37.989528249322959
31
0
0
LINE
5
183
100
AcDbEntity
8
0
100
AcDbLine
10
0.99999999999999578
20
36.406834960552523
30
0
11
0.80000000000000004
21
36.406834960552523
31
0
0
LINE
5
184
100
AcDbEntity
8
0
100
AcDbLine
10
1
20
37.989528249323023
30
0
11
0.99999999999999578
21
36.406834960552523
31
0
0
ELLIPSE
5
185
100
AcDbEntity
8
0
100
AcDbEllipse
10
0.80000000000000004
20
37.989528249323008
30
0
11
0.20000000000000881
21
0
31
0.0
40
0.87927404931689723
41
5.6843418860810514e-14
42
1.5707963267948966
0
LINE
5
186
100
AcDbEntity
8
0
100
AcDbLine
10
0.80000000000000004
20
36.406834960552523
30
0
11
0.80000000000000004
21
38.165383059186397
31
0
0
LWPOLYLINE
5
187
100
AcDbEntity
8
0
100
AcDbPolyline
90
4
70
1
43
0.0
10
0.80000000000000004
20
-36.406834960552473
10
0.99999999999999578
20
-36.406834960552473
10
1
20
36.406834960552523
10
0.80000000000000004
20
36.406834960552523
0
LWPOLYLINE
5
188
100
AcDbEntity
8
0
100
AcDbPolyline
90
4
70
1
43
0.0
10
0.99999999999999067
20
-36.406834960552523
10
1.1999999999999906
20
-36.406834960552523
10
1.2000000000000013
20
36.406834960552473
10
1.0000000000000155
20
36.406834960552473
0
LINE
5
189
100
AcDbEntity
8
0
100
AcDbLine
10
-37.680182006928348
20
36.406834960552537
30
0
11
-38.49178850543074
21
37.812578651711718
31
0
0
SPLINE
5
190
100
AcDbEntity
8
0
100
AcDbSpline
70
0
71
3
72
8
73
4
74
0
42
0.000000001
43
0.0000000001
44
0.0000000001
40
1.0061951557657025
40
1.0061951557657025
40
1.0061951557657025
40
1.0061951557657025
40
1.0469004569308678
40
1.0469004569308678
40
1.0469004569308678
40
1.0469004569308678
10
-38.795490361007694
20
37.788782669801812
30
0
10
-38.702435114881141
20
37.808849670939409
30
0
10
-38.600371961864781
20
37.816888872066379
30
0
10
-38.491788505569254
20
37.812578651578008
30
0
0
ELLIPSE
5
191
100
AcDbEntity
8
0
100
AcDbEllipse
10
-37.769912503113574
20
36.25141718217138
30
0
11
2.0913559351702178
21
0.56037713391489741
31
0.0
40
0.84057140915170792
41
1.8480996203176188
42
2.2697910766873997
0
LINE
5
192
100
AcDbEntity
8
0
100
AcDbLine
10
-39.476166179891187
20
37.236523201764726
30
0
11
-51.985858131282505
21
15.569101154919519
31
0
0
LINE
5
193
100
AcDbEntity
8
0
100
AcDbLine
10
-50.279604454504884
20
14.583995135326166
30
0
11
-51.985858131282505
21
15.569101154919519
31
0
0
LINE
5
194
100
AcDbEntity
8
0
100
AcDbLine
10
-50.279604454504884
20
14.583995135326166
30
0
11
-37.680182006928348
21
36.406834960552537
31
0
0
LINE
5
195
100
AcDbEntity
8
0
100
AcDbLine
10
-52.105798945487734
20
-15.073322474407188
30
0
11
-50.279604454504891
21
-14.58399513532617
31
0
0
LINE
5
196
100
AcDbEntity
8
0
100
AcDbLine
10
-50.279604454504891
20
-14.58399513532617
30
0
11
-50.279604454504891
21
14.583995135326164
31
0
0
LINE
5
197
100
AcDbEntity
8
0
100
AcDbLine
10
-52.257138552915514
20
14.583995135326171
30
0
11
-50.279604454504891
21
14.583995135326164
31
0
0
LINE
5
198
100
AcDbEntity
8
0
100
AcDbLine
10
-52.257138552915514
20
14.583995135326171
30
0
11
-52.257138552915521
21
-14.583995135326166
31
0
0
ELLIPSE
5
199
100
AcDbEntity
8
0
100
AcDbEllipse
10
-50.279604454504891
20
-14.58399513532617
30
0
11
-1.7993062498669266
21
1.0388299477152849
31
0.0
40
0.84057140915171114
41
0.6018489019406279
42
0.87180157690241133
0
ELLIPSE
5
200
100
AcDbEntity
8
0
100
AcDbEllipse
10
-50.279604454504891
20
14.583995135326171
30
0
11
1.0000000000002507
21
1.7320508075687371
31
0.0
40
0.98510601959334498
41
1.5707963267950369
42
2.0879218064928282
0
LINE
5
201
100
AcDbEntity
8
0
100
AcDbLine
10
-52.257138552915521
20
14.583995135326173
30
0
11
-50.279604454504891
21
14.583995135326171
31
0
0
LINE
5
202
100
AcDbEntity
8
0
100
AcDbLine
10
-50.279604454504891
20
14.583995135326171
30
0
11
-51.985858131282505
21
15.569101154919522
31
0
0
SPLINE
5
203
100
AcDbEntity
8
0
100
AcDbSpline
70
0
71
3
72
8
73
4
74
0
42
0.000000001
43
0.0000000001
44
0.0000000001
40
1.8588162290521293
40
1.8588162290521293
40
1.8588162290521293
40
1.8588162290521293
40
1.8999913961116452
40
1.8999913961116452
40
1.8999913961116452
40
1.8999913961116452
10
-38.491788505348495
20
-37.812578651569211
30
0
10
-38.602226141831423
20
-37.816962473759837
30
0
10
-38.704635374660818
20
-37.808375162886925
30
0
10
-38.79549036100773
20
-37.788782669801783
30
0
0
LINE
5
204
100
AcDbEntity
8
0
100
AcDbLine
10
-38.491788505348495
20
-37.812578651569211
30
0
11
-37.680182006928383
21
-36.406834960552473
31
0
0
LINE
5
205
100
AcDbEntity
8
0
100
AcDbLine
10
-37.680182006928383
20
-36.406834960552473
30
0
11
-50.279604454504891
21
-14.583995135326173
31
0
0
LINE
5
206
100
AcDbEntity
8
0
100
AcDbLine
10
-52.105798945487734
20
-15.073322474407188
30
0
11
-50.279604454504891
21
-14.583995135326173
31
0
0
ELLIPSE
5
207
100
AcDbEntity
8
0
100
AcDbEllipse
10
-50.279604454504891
20
-14.583995135326173
30
0
11
-0.56037713391474919
21
-2.0913559351702524
31
0.0
40
0.84057140915170614
41
5.1642109255410942
42
5.4113837302770929
0
LINE
5
208
100
AcDbEntity
8
0
100
AcDbLine
10
-51.985858131282512
20
-15.569101154919494
30
0
11
-39.47616617989118
21
-37.236523201764726
31
0
0
ELLIPSE
5
209
100
AcDbEntity
8
0
100
AcDbEllipse
10
-37.769912503113574
20
-36.25141718217138
30
0
11
2.09135593517022
21
-0.56037713391489319
31
0.0
40
0.8405714091517057
41
4.0133942304921897
42
4.4350856868619477
0
LINE
5
210
100
AcDbEntity
8
0
100
AcDbLine
10
0.80000000000000004
20
-38.165383059186347
30
0
11
0.80000000000000004
21
-36.406834960552473
31
0
0
LINE
5
211
100
AcDbEntity
8
0
100
AcDbLine
10
0.80000000000000004
20
-36.406834960552473
30
0
11
-37.680182006928391
21
-36.406834960552473
31
0
0
LINE
5
212
100
AcDbEntity
8
0
100
AcDbLine
10
-38.491788505348502
20
-37.812578651569211
30
0
11
-37.680182006928391
21
-36.406834960552473
31
0
0
ELLIPSE
5
213
100
AcDbEntity
8
0
100
AcDbEllipse
10
-37.500721014558046
20
-36.406834960552466
30
0
11
-3.3603561995830855
21
1.2371998954573997
31
0.0
40
0.46763263883233647
41
1.446386399994618
42
1.7412955031876949
0
LINE
5
214
100
AcDbEntity
8
0
100
AcDbLine
10
-37.500721014558046
20
-38.165383059186347
30
0
11
0.80000000000000004
21
-38.165383059186347
31
0
0
ELLIPSE
5
215
100
AcDbEntity
8
0
100
AcDbEllipse
10
0.80000000000000004
20
-37.989528249322959
30
0
11
0.19999999999998799
21
0
31
0.0
40
0.87927404931696673
41
4.7123889803846897
42
6.2831853071795862
0
LINE
5
216
100
AcDbEntity
8
0
100
AcDbLine
10
1
20
-36.406834960552473
30
0
11
0.99999999999998801
21
-37.989528249322959
31
0
0
LINE
5
217
100
AcDbEntity
8
0
100
AcDbLine
10
1
20
-36.406834960552473
30
0
11
0.80000000000000004
21
-36.406834960552473
31
0
0
LINE
5
218
100
AcDbEntity
8
0
100
AcDbLine
10
0.80000000000000004
20
-38.165383059186347
30
0
11
0.80000000000000004
21
-36.406834960552473
31
0
0
ELLIPSE
5
219
100
AcDbEntity
8
0
100
AcDbEllipse
10
1.1999999999999917
20
-37.989528249323016
30
0
11
-0.20000000000000184
21
0
31
0.0
40
0.87927404931696651
41
0
42
1.5707963267948966
0
LINE
5
220
100
AcDbEntity
8
0
100
AcDbLine
10
1.1999999999999924
20
-36.406834960552523
30
0
11
1.1999999999999917
21
-38.165383059186411
31
0
0
LINE
5
221
100
AcDbEntity
8
0
100
AcDbLine
10
1.1999999999999924
20
-36.406834960552523
30
0
11
0.99999999999999067
21
-36.406834960552523
31
0
0
LINE
5
222
100
AcDbEntity
8
0
100
AcDbLine
10
0.9999999999999899
20
-37.989528249323016
30
0
11
0.99999999999999067
21
-36.406834960552523
31
0
0
LINE
5
223
100
AcDbEntity
8
0
100
AcDbLine
10
1.1999999999999924
20
-36.406834960552523
30
0
11
1.1999999999999917
21
-38.165383059186404
31
0
0
LINE
5
224
100
AcDbEntity
8
0
100
AcDbLine
10
1.1999999999999917
20
-38.165383059186404
30
0
11
37.500721014557939
21
-38.165383059186404
31
0
0
ELLIPSE
5
225
100
AcDbEntity
8
0
100
AcDbEllipse
10
37.500721014557939
20
-36.40683496055253
30
0
11
3.360356199583094
21
1.2371998954574044
31
0.0
40
0.46763263883233497
41
4.5418898039918902
42
4.8367989071849848
0
LINE
5
226
100
AcDbEntity
8
0
100
AcDbLine
10
37.680182006928355
20
-36.406834960552537
30
0
11
38.491788505348467
21
-37.812578651569254
31
0
0
LINE
5
227
100
AcDbEntity
8
0
100
AcDbLine
10
37.680182006928355
20
-36.406834960552537
30
0
11
1.1999999999999924
21
-36.406834960552523
31
0
0
SPLINE
5
228
100
AcDbEntity
8
0
100
AcDbSpline
70
0
71
3
72
8
73
4
74
0
42
0.000000001
43
0.0000000001
44
0.0000000001
40
1.0061951557657023
40
1.0061951557657023
40
1.0061951557657023
40
1.0061951557657023
40
1.0469000207975401
40
1.0469000207975401
40
1.0469000207975401
40
1.0469000207975401
10
38.795490361007708
20
-37.788782669801805
30
0
10
38.702436111913315
20
-37.808849455933313
30
0
10
38.60037066188098
20
-37.816888564719868
30
0
10
38.491788505348474
20
-37.812578651569247
30
0
0
ELLIPSE
5
229
100
AcDbEntity
8
0
100
AcDbEllipse
10
37.769912503113574
20
-36.25141718217138
30
0
11
-2.0913559351702173
21
-0.56037713391489485
31
0.0
40
0.84057140915170725
41
1.8480996203176232
42
2.2697910766873992
0
LINE
5
230
100
AcDbEntity
8
0
100
AcDbLine
10
39.476166179891194
20
-37.236523201764726
30
0
11
51.985858131282505
21
-15.569101154919526
31
0
0
LINE
5
231
100
AcDbEntity
8
0
100
AcDbLine
10
50.279604454504891
20
-14.583995135326182
30
0
11
51.985858131282505
21
-15.569101154919526
31
0
0
LINE
5
232
100
AcDbEntity
8
0
100
AcDbLine
10
50.279604454504891
20
-14.583995135326182
30
0
11
37.680182006928362
21
-36.40683496055253
31
0
0
LINE
5
233
100
AcDbEntity
8
0
100
AcDbLine
10
37.680182006928362
20
-36.40683496055253
30
0
11
38.491788505348467
21
-37.812578651569247
31
0
0
LWPOLYLINE
5
234
100
AcDbEntity
8
0
100
AcDbPolyline
90
4
70
1
43
0.0
10
52.257138552915521
20
14.583995135326159
10
50.279604454504891
20
14.583995135326163
10
50.279604454504891
20
-14.583995135326184
10
52.257138552915514
20
-14.58399513532618
0
ELLIPSE
5
235
100
AcDbEntity
8
0
100
AcDbEllipse
10
50.279604454504891
20
-14.58399513532618
30
0
11
-1.0000000000002507
21
-1.7320508075687371
31
0.0
40
0.98510601959334498
41
1.5707963267950369
42
2.0879218064928304
0
LINE
5
236
100
AcDbEntity
8
0
100
AcDbLine
10
52.257138552915521
20
-14.583995135326182
30
0
11
50.279604454504891
21
-14.58399513532618
31
0
0
LINE
5
237
100
AcDbEntity
8
0
100
AcDbLine
10
50.279604454504891
20
-14.58399513532618
30
0
11
51.985858131282505
21
-15.569101154919531
31
0
0
SPLINE
5
238
100
AcDbEntity
8
0
100
AcDbSpline
70
0
71
3
72
8
73
4
74
0
42
0.000000001
43
0.0000000001
44
0.0000000001
40
1.8588162290521466
40
1.8588162290521466
40
1.8588162290521466
40
1.8588162290521466
40
1.8999913961116548
40
1.8999913961116548
40
1.8999913961116548
40
1.8999913961116548
10
38.491788505348495
20
37.812578651569218
30
0
10
38.602226141831409
20
37.816962473759837
30
0
10
38.704635374660768
20
37.808375162886939
30
0
10
38.79549036100768
20
37.788782669801805
30
0
0
LINE
5
239
100
AcDbEntity
8
0
100
AcDbLine
10
38.491788505348495
20
37.812578651569218
30
0
11
37.680182006928383
21
36.406834960552473
31
0
0
LINE
5
240
100
AcDbEntity
8
0
100
AcDbLine
10
37.680182006928383
20
36.406834960552473
30
0
11
50.279604454504891
21
14.583995135326164
31
0
0
LINE
5
241
100
AcDbEntity
8
0
100
AcDbLine
10
51.985858131282505
20
15.569101154919501
30
0
11
50.279604454504891
21
14.583995135326164
31
0
0
LINE
5
242
100
AcDbEntity
8
0
100
AcDbLine
10
51.985858131282505
20
15.569101154919501
30
0
11
39.47616617989118
21
37.236523201764726
31
0
0
ELLIPSE
5
243
100
AcDbEntity
8
0
100
AcDbEllipse
10
37.769912503113574
20
36.25141718217138
30
0
11
-2.0913559351702227
21
0.56037713391486854
31
0.0
40
0.84057140915170547
41
4.0133942304921737
42
4.4350856868619593
0
ELLIPSE
5
244
100
AcDbEntity
8
0
100
AcDbEllipse
10
50.279604454504891
20
14.583995135326159
30
0
11
0.99999999999999967
21
-1.7320508075688748
31
0.0
40
0.98510601959334565
41
1.0536708470971043
42
1.5707963267948948
0
LINE
5
245
100
AcDbEntity
8
0
100
AcDbLine
10
51.985858131282505
20
15.569101154919501
30
0
11
50.279604454504891
21
14.583995135326159
31
0
0
LINE
5
246
100
AcDbEntity
8
0
100
AcDbLine
10
50.279604454504891
20
14.583995135326159
30
0
11
52.257138552915521
21
14.583995135326159
31
0
0
SPLINE
5
247
100
AcDbEntity
8
0
100
AcDbSpline
70
0
71
3
72
18
73
14
74
0
42
0.000000001
43
0.0000000001
44
0.0000000001
40
0
40
0
40
0
40
0
40
0.29553617764327755
40
0.29553617764327755
40
0.59517267039718647
40
0.59517267039718647
40
0.89890832574313528
40
0.89890832574313528
40
1.2067420054479674
40
1.2067420054479674
40
1.3942688108805164
40
1.3942688108805164
40
1.5833036139541488
40
1.5833036139541488
40
1.5833036139541488
40
1.5833036139541488
10
-32.669446090814176
20
13.063002030970527
30
0
10
-33.343175741245716
20
13.781716813896308
30
0
10
-33.869011053941946
20
14.625871761470501
30
0
10
-34.574954268649094
20
16.480573490916765
30
0
10
-34.743315320430568
20
17.475060178809152
30
0
10
-34.691561833275351
20
19.486842689936424
30
0
10
-34.466683813237211
20
20.484553176962979
30
0
10
-33.643775083924851
20
22.351637705427795
30
0
10
-33.048881008808159
20
23.200838954920123
30
0
10
-31.857757901106581
20
24.347205765946754
30
0
10
-31.357128926275099
20
24.726362891431101
30
0
10
-30.27345871260713
20
25.362866863652059
30
0
10
-29.693599457141563
20
25.616977682582576
30
0
10
-29.090076636806334
20
25.800959679216522
30
0
0
ARC
5
248
100
AcDbEntity
8
0
100
AcDbCircle
10
-27.000000252260023
20
18.000000000000004
30
0
40
8.0761000000000021
210
0
220
-0
230
1
100
AcDbArc
50
75.001264069356594
51
104.99873593065294
0
SPLINE
5
249
100
AcDbEntity
8
0
100
AcDbSpline
70
0
71
3
72
18
73
14
74
0
42
0.000000001
43
0.0000000001
44
0.0000000001
40
0
40
0
40
0
40
0
40
0.31327052106324066
40
0.31327052106324066
40
0.62243825076252546
40
0.62243825076252546
40
0.92750207189318656
40
0.92750207189318656
40
1.2284608536503452
40
1.2284608536503452
40
1.4078280789372317
40
1.4078280789372317
40
1.5856844258698135
40
1.5856844258698135
40
1.5856844258698135
40
1.5856844258698135
10
-24.909923867715023
20
25.800959679216874
30
0
10
-23.911070381562062
20
25.496462396703162
30
0
10
-22.980864790413751
20
25.001039084256362
30
0
10
-21.374985434519907
20
23.688230277539027
30
0
10
-20.711501972867925
20
22.8876117700393
30
0
10
-19.737572632723385
20
21.087985983257596
30
0
10
-19.431911175489223
20
20.108882698342555
30
0
10
-19.217115261523052
20
18.102021190583827
30
0
10
-19.304821893871626
20
17.09422663863743
30
0
10
-19.751078467384502
20
15.558528340863287
30
0
10
-19.984366055503916
20
15.006574432267401
30
0
10
-20.573177260068078
20
13.973285124004764
30
0
10
-20.925624360252378
20
13.494969386543543
30
0
10
-21.33055441370535
20
13.063002030971127
30
0
0
ARC
5
250
100
AcDbEntity
8
0
100
AcDbCircle
10
-27.000000252260023
20
18.000000000000004
30
0
40
7.517750000000011
210
0
220
0
230
1
100
AcDbArc
50
221.04960413939349
51
318.95039586061256
0
CIRCLE
5
251
100
AcDbEntity
8
0
100
AcDbCircle
10
-27.000000252260023
20
18.000000000000004
30
0
40
11.499999999999996
210
0
220
-0
230
1
0
ENDSEC
0
SECTION
2
OBJECTS
0
DICTIONARY
5
C
100
AcDbDictionary
3
ACAD_GROUP
350
D
3
ACAD_MLINESTYLE
350
17
0
DICTIONARY
5
D
100
AcDbDictionary
0
DICTIONARY
5
1A
330
C
100
AcDbDictionary
0
DICTIONARY
5
17
100
AcDbDictionary
0
ENDSEC
0
EOF
